<svg version="1.1" id="Layer_1" xmlns="http://www.w3.org/2000/svg" xmlns:xlink="http://www.w3.org/1999/xlink" x="0px" y="0px"
	 width="100%" viewBox="0 0 1080 608" enable-background="new 0 0 1080 608" xml:space="preserve">
<path fill="none" opacity="1.000000" stroke="#000000" stroke-linecap="round" stroke-linejoin="round" stroke-width="7.000000"
	d="
M628.000000,143.000000 
	C625.501221,145.081314 624.890320,147.985489 624.202637,150.989151 
	C621.932373,160.904892 619.806580,170.797592 618.890747,180.990189 
	C617.708374,194.149231 616.703857,207.304855 615.843079,220.489761 
	C614.972534,233.825867 614.011902,247.173035 612.858948,260.487793 
	C611.833374,272.332031 611.287476,284.237793 609.305847,296.009399 
	C607.442566,307.078094 602.422546,316.949463 597.904175,326.956757 
	C589.791748,344.924164 582.321655,363.069427 578.536560,382.507111 
	C577.220703,389.264923 576.640747,396.139343 575.840820,402.981384 
	C574.235840,416.710693 575.855774,430.341675 576.124634,443.997559 
	C576.370972,456.509094 577.661865,469.000336 578.501526,481.499908 
	C579.194092,491.809570 575.094971,501.100433 571.904114,510.467346 
	C562.675110,537.559631 553.032349,564.511475 543.448120,591.481567 
	C542.530579,594.063416 541.896790,597.164185 538.500000,598.000000 
"/>
<path fill="none" opacity="1.000000" stroke="#000000" stroke-linecap="round" stroke-linejoin="round" stroke-width="7.000000"
	d="
M646.500000,295.000000 
	C643.961060,299.502106 644.692200,304.751343 643.084229,309.528351 
	C638.510925,323.114258 634.434937,336.866608 629.973450,350.491272 
	C624.806580,366.269928 621.715881,382.366791 623.090515,398.992523 
	C623.934448,409.199646 624.950500,419.495789 627.208984,429.452576 
	C629.310486,438.717560 628.333984,446.857147 624.651306,455.563995 
	C613.449219,482.048431 603.372620,508.972046 591.256226,535.118713 
	C580.430237,558.480652 569.934265,582.090576 561.528259,606.509705 
	C560.749451,608.771912 559.326172,608.793091 557.500000,608.250000 
"/>
<path fill="none" opacity="1.000000" stroke="#000000" stroke-linecap="round" stroke-linejoin="round" stroke-width="7.000000"
	d="
M192.000000,245.500000 
	C192.107086,248.313477 191.360641,250.551956 189.635712,253.092163 
	C178.042068,270.165314 168.880859,288.513947 161.978317,307.992310 
	C156.600266,323.168762 148.218536,336.583374 138.051331,349.041901 
	C124.178902,366.040649 110.771179,383.417999 96.958344,400.466248 
	C89.420006,409.770325 80.625061,418.092407 74.531937,428.518677 
	C64.820900,445.135651 56.149738,462.319885 47.559196,479.529541 
	C41.392315,491.883820 33.862255,503.389679 26.445986,514.965393 
	C20.039278,524.965271 13.214390,534.699524 6.477818,544.484741 
	C3.546065,548.743286 3.090278,553.806030 1.500000,558.500000 
"/>
<path fill="none" opacity="1.000000" stroke="#000000" stroke-linecap="round" stroke-linejoin="round" stroke-width="8.000000"
	d="
M407.000000,45.000000 
	C406.546692,46.350845 405.468231,47.347061 405.447998,48.999363 
	C405.274414,63.175461 403.815735,77.286438 403.749969,91.498840 
	C403.702911,101.671455 401.717010,111.904564 399.847992,121.971786 
	C398.818512,127.517212 395.002991,131.798447 391.163330,136.144302 
	C384.251892,143.966873 378.231140,152.591721 372.041840,161.030670 
	C368.803711,165.445740 365.331085,169.671173 362.055481,174.041595 
	C348.821472,191.698746 334.489471,208.461304 320.459442,225.466537 
	C311.523224,236.297745 301.925873,246.538834 292.285797,256.769287 
	C285.456207,264.017151 279.060699,271.889374 272.460632,279.465698 
	C256.802704,297.439606 244.018738,317.713226 227.643707,335.135071 
	C225.022446,337.923889 221.440689,338.247192 218.927490,340.932129 
	C209.277649,351.241272 197.165482,358.728973 186.947891,368.445190 
	C176.348495,378.524536 165.444763,388.293060 154.471024,397.967133 
	C141.546112,409.361267 128.908447,421.028961 116.953094,433.454865 
	C108.682716,442.050690 104.355049,452.977356 98.529671,463.017212 
	C89.161278,479.163330 81.581459,496.366119 70.433731,511.451019 
	C65.441071,518.207092 58.633785,523.348145 52.407284,528.895935 
	C37.248875,542.402100 22.894005,556.711792 8.435135,570.934082 
	C5.277722,574.039795 2.722192,577.259216 1.500000,581.500000 
"/>
<path fill="none" opacity="1.000000" stroke="#000000" stroke-linecap="round" stroke-linejoin="round" stroke-width="7.000000"
	d="
M733.000000,257.500000 
	C731.483582,260.836060 733.576172,263.826385 734.663574,266.431732 
	C742.394043,284.952667 745.866516,304.577698 749.876160,324.025543 
	C752.662170,337.538696 754.155701,351.309875 756.138367,364.979950 
	C758.308350,379.942017 763.736328,394.050171 769.457825,408.017273 
	C774.355164,419.972168 779.667236,431.813934 782.465027,444.507721 
	C784.712158,454.702850 786.586304,465.010986 784.902344,475.484283 
	C784.383789,478.709290 786.503906,481.000244 786.609497,483.996155 
	C786.861389,491.149475 788.228943,498.166107 790.480103,505.006531 
	C794.433044,517.018005 801.003357,527.743103 808.176636,537.874939 
	C817.502319,551.046997 823.561707,565.561646 829.000000,580.500000 
"/>
<path fill="none" opacity="1.000000" stroke="#000000" stroke-linecap="round" stroke-linejoin="round" stroke-width="6.000000"
	d="
M635.000000,104.500000 
	C634.815796,107.757660 635.833984,110.092476 638.345825,112.651352 
	C643.335083,117.734154 646.617432,124.213280 649.980347,130.510483 
	C650.294373,131.098465 650.520813,131.847290 650.472351,132.497940 
	C649.465271,146.024353 654.976929,158.281494 658.054382,170.986816 
	C665.342102,201.074249 680.161987,227.960159 694.559998,254.968018 
	C704.016541,272.706604 707.829956,291.793182 710.127441,311.485138 
	C711.420410,322.567596 712.195129,334.265686 716.455078,344.306915 
	C721.824951,356.964233 726.226318,370.002747 731.863770,382.561157 
	C740.061462,400.822754 747.459900,419.448944 754.951660,438.019501 
	C759.317017,448.840302 757.915161,459.218872 751.516724,469.010925 
	C740.581970,485.745300 727.729309,501.120087 716.924622,517.951599 
	C715.482117,520.198792 713.362427,522.237793 710.500000,523.000000 
"/>
<path fill="none" opacity="1.000000" stroke="#000000" stroke-linecap="round" stroke-linejoin="round" stroke-width="6.000000"
	d="
M264.500000,405.000000 
	C263.810364,408.301392 264.972290,411.115204 266.459869,414.020538 
	C283.686035,447.664246 300.828674,481.345062 318.912201,514.547791 
	C331.159576,537.035034 346.460388,557.320862 361.986664,577.510254 
	C368.732788,586.282471 375.325836,595.172302 382.005341,603.995972 
	C383.670624,606.195862 384.718903,609.331970 388.500000,608.500000 
"/>
<path fill="none" opacity="1.000000" stroke="#000000" stroke-linecap="round" stroke-linejoin="round" stroke-width="7.000000"
	d="
M628.500000,122.000000 
	C622.900879,124.163269 621.029724,129.593185 618.004395,134.002991 
	C606.124878,151.318787 594.570618,168.841660 583.953247,186.972626 
	C582.390869,189.640656 581.749878,191.897949 582.883484,195.042023 
	C584.513672,199.563354 582.086609,204.065964 581.328552,208.470490 
	C578.962463,222.217575 575.329285,235.755661 573.205994,249.531754 
	C572.093323,256.750732 571.209961,264.095673 570.868286,271.493927 
	C570.058533,289.030884 568.138306,306.463318 563.527771,323.507507 
	C559.413391,338.718018 557.454590,354.276886 557.058655,370.001465 
	C556.855713,378.059570 556.170776,386.026825 555.220398,394.026184 
	C554.863403,397.031311 555.406189,400.278625 555.109802,403.510071 
	C554.149292,413.983124 553.343994,424.492950 553.114075,435.002502 
	C552.962524,441.934814 551.253357,447.381989 546.743774,453.189301 
	C531.927490,472.269165 520.271118,493.271027 512.989685,516.496765 
	C506.860077,536.048401 501.438721,555.768738 497.932159,575.988220 
	C497.480072,578.595154 496.692902,581.277161 495.000000,583.500000 
"/>
<path fill="none" opacity="1.000000" stroke="#000000" stroke-linecap="round" stroke-linejoin="round" stroke-width="7.000000"
	d="
M207.500000,409.000000 
	C210.539001,414.353912 207.657532,419.154785 205.969559,423.989380 
	C201.534973,436.690613 197.063660,449.397461 194.116257,462.526093 
	C192.766281,468.539337 192.485229,474.820160 192.036148,481.002625 
	C190.960251,495.814484 190.604202,510.670776 189.782669,525.487976 
	C189.172882,536.485718 188.707779,547.503540 188.075729,558.504333 
	C187.119110,575.154358 186.666656,591.833313 186.000000,608.500000 
"/>
<path fill="none" opacity="1.000000" stroke="#000000" stroke-linecap="round" stroke-linejoin="round" stroke-width="7.000000"
	d="
M395.000000,133.500000 
	C398.460419,136.139587 395.908997,139.467422 395.316772,141.956390 
	C391.513153,157.940979 390.667938,174.257690 388.894562,190.488480 
	C387.294312,205.134735 387.466125,219.868195 385.967865,234.496704 
	C384.992279,244.022049 380.639435,252.449799 375.876373,260.426178 
	C368.406311,272.935822 361.117615,285.531647 354.536285,298.518402 
	C345.068207,317.201630 336.091400,336.132782 326.009979,354.505493 
	C314.133972,376.148712 302.336365,397.834991 290.486786,419.492767 
	C290.090851,420.216370 289.500031,420.833344 289.000031,421.500000 
"/>
<path fill="none" opacity="1.000000" stroke="#000000" stroke-linecap="round" stroke-linejoin="round" stroke-width="7.000000"
	d="
M715.500000,344.500000 
	C710.136292,347.411377 710.203735,352.021881 710.324524,357.503876 
	C710.724731,375.661224 710.606689,393.829224 710.125000,412.003326 
	C709.582031,432.488922 710.123047,453.000977 709.958008,473.499664 
	C709.842590,487.834747 708.700867,502.190735 709.244995,516.490662 
	C709.555115,524.639771 708.543091,532.110657 705.536560,539.514832 
	C705.106201,540.574463 704.714355,541.998230 705.070251,542.974426 
	C708.480286,552.327881 704.612976,561.172974 702.815369,569.962219 
	C700.113831,583.170837 697.207397,596.476807 690.000000,608.250000 
"/>
<path fill="none" opacity="1.000000" stroke="#000000" stroke-linecap="round" stroke-linejoin="round" stroke-width="7.000000"
	d="
M415.500000,362.500000 
	C413.629608,374.107941 414.065765,385.812927 413.988617,397.499939 
	C413.864288,416.333557 414.060516,435.180969 413.377472,453.995544 
	C412.813477,469.531616 413.632355,485.000397 413.867432,500.502014 
	C414.041626,511.991791 413.000000,523.500000 412.500000,535.000000 
"/>
<path fill="none" opacity="1.000000" stroke="#000000" stroke-linecap="round" stroke-linejoin="round" stroke-width="6.000000"
	d="
M554.500000,394.500000 
	C549.484985,395.318420 546.004761,398.928284 542.031799,401.548218 
	C522.117188,414.681183 501.256012,426.380554 482.045624,440.561798 
	C468.042816,450.898743 458.132050,464.786774 450.007233,480.003876 
	C442.548035,493.974487 437.422913,508.701599 435.452240,524.494019 
	C434.812134,529.623352 433.295959,530.897400 427.999664,530.920898 
	C424.761444,530.935181 421.575195,532.075989 419.141846,533.285400 
	C414.433197,535.625549 409.807312,535.454346 405.000000,535.500000 
"/>
<path fill="none" opacity="1.000000" stroke="#000000" stroke-linecap="round" stroke-linejoin="round" stroke-width="6.000000"
	d="
M311.000000,448.500000 
	C309.755219,452.069061 311.008911,454.912170 312.916504,458.050751 
	C323.589966,475.611969 333.557861,493.615692 344.613525,510.927490 
	C358.003357,531.894226 372.566162,552.087158 387.473969,572.019470 
	C395.619629,582.910522 403.442566,594.042664 411.555634,604.958618 
	C412.932404,606.811035 414.203369,609.556152 417.500000,608.500000 
"/>
<path fill="none" opacity="1.000000" stroke="#000000" stroke-linecap="round" stroke-linejoin="round" stroke-width="7.000000"
	d="
M635.500000,110.500000 
	C630.670532,113.954041 628.574158,118.602150 629.518127,124.497101 
	C629.921265,127.014481 630.178162,129.429550 629.558105,132.013947 
	C628.036621,138.355286 630.897766,144.325516 631.524658,150.497498 
	C633.211975,167.110962 638.265442,183.103622 640.763916,199.535889 
	C641.810547,206.419067 642.433533,213.503189 643.203979,220.477463 
	C644.253357,229.977112 644.701477,239.496964 645.498718,249.000107 
	C646.532349,261.321320 645.885620,273.666962 645.942139,286.000275 
	C645.963074,290.576172 646.669983,293.848175 650.847839,297.190216 
	C668.451843,311.272491 684.519897,327.127777 701.021729,342.476685 
	C703.731567,344.997223 706.114624,348.059204 710.000000,349.000000 
"/>
<path fill="none" opacity="1.000000" stroke="#000000" stroke-linecap="round" stroke-linejoin="round" stroke-width="6.000000"
	d="
M291.500000,256.500000 
	C288.959503,253.440140 289.160492,249.503143 288.627899,245.980667 
	C286.871735,234.365326 285.629852,222.670929 284.279572,210.996582 
	C283.993134,208.520065 283.670227,205.927994 284.090698,203.515808 
	C284.840912,199.212021 281.779602,196.050247 281.283325,192.026733 
	C280.293396,184.001175 279.998535,175.805801 277.584076,168.041229 
	C276.007690,166.894745 274.595032,167.428955 273.525299,168.524689 
	C269.420044,172.729767 265.368408,176.399612 265.150269,183.489243 
	C264.943634,190.205963 261.986877,196.880066 259.974518,203.492249 
	C248.861130,240.008469 237.639053,276.491608 226.527069,313.008240 
	C224.668350,319.116455 223.219803,325.348450 221.473816,331.492554 
	C220.777115,333.944214 220.683594,336.248779 222.000000,338.500000 
"/>
<path fill="none" opacity="1.000000" stroke="#000000" stroke-linecap="round" stroke-linejoin="round" stroke-width="6.000000"
	d="
M551.000000,449.500000 
	C552.866821,451.099945 553.093079,453.215088 553.014832,455.500519 
	C552.668091,465.635437 550.943359,475.572021 549.046570,485.508881 
	C547.216553,495.095642 546.160400,504.806488 544.897522,514.486633 
	C543.324646,526.542358 540.749146,538.465637 539.098083,550.513428 
	C538.170715,557.280701 537.341736,564.095459 537.417053,571.000916 
	C537.482483,576.996582 536.742371,582.996948 536.539368,589.001343 
	C536.441650,591.892090 536.446960,594.674866 537.851807,597.571838 
	C539.544434,601.062195 536.267761,604.736450 537.088013,608.500000 
	C536.833313,608.500000 536.662964,608.476929 536.500549,608.503296 
	C529.450195,609.648743 523.589050,607.584351 518.457153,602.543640 
	C511.321045,595.534241 502.680573,590.325073 494.775391,584.294434 
	C485.112946,576.923218 474.725220,570.400879 464.956146,563.058350 
	C461.289429,560.302307 458.319946,556.891113 455.610626,553.413818 
	C449.175385,545.154236 441.849854,537.847168 434.000000,531.000000 
"/>
<path fill="none" opacity="1.000000" stroke="#000000" stroke-linecap="round" stroke-linejoin="round" stroke-width="6.000000"
	d="
M418.500000,259.500000 
	C411.863586,264.787842 408.636047,272.469238 404.513458,279.507874 
	C396.156494,293.775909 391.346466,309.518921 386.094696,325.032043 
	C382.351410,336.089203 376.853210,345.768341 368.548798,354.048920 
	C355.133636,367.425537 343.231415,382.181213 331.706085,397.158569 
	C327.997742,401.977600 326.644165,408.483734 322.648102,413.615326 
	C317.322784,420.453888 312.391022,427.568420 306.000000,433.500000 
"/>
<path fill="none" opacity="1.000000" stroke="#000000" stroke-linecap="round" stroke-linejoin="round" stroke-width="7.000000"
	d="
M784.000000,477.000000 
	C782.674500,478.175598 781.098694,478.879120 779.929382,480.447327 
	C763.883118,501.967285 751.498657,525.378296 741.857117,550.445068 
	C734.678894,569.107788 726.899658,587.542542 720.583679,606.527832 
	C719.715637,609.137207 718.094360,608.355347 716.500000,608.500000 
"/>
<path fill="none" opacity="1.000000" stroke="#000000" stroke-linecap="round" stroke-linejoin="round" stroke-width="7.000000"
	d="
M406.500000,56.500000 
	C409.997253,57.801643 410.315582,61.382244 410.844208,64.031090 
	C413.568970,77.684929 418.277588,90.941628 419.137909,104.991554 
	C419.227112,106.448967 419.433411,108.007111 419.466827,109.500740 
	C419.694305,119.665985 418.782379,129.803879 419.369019,140.007538 
	C420.085846,152.475906 419.259888,165.045761 420.252167,177.479874 
	C420.718689,183.325912 419.698883,188.841217 419.608002,194.501740 
	C419.418091,206.329330 419.948090,218.166550 419.960999,230.000046 
	C419.970093,238.332626 419.836060,246.671051 419.682373,255.003357 
	C419.535370,262.972565 420.989960,270.980530 420.473633,278.998291 
	C418.961456,302.479980 418.974579,325.987579 418.930695,349.499878 
	C418.924164,352.984680 417.313019,356.435547 418.500000,360.000000 
"/>
<path fill="none" opacity="1.000000" stroke="#000000" stroke-linecap="round" stroke-linejoin="round" stroke-width="7.000000"
	d="
M404.000000,40.500000 
	C397.113220,46.602386 392.796173,54.682545 387.521729,62.015617 
	C371.129028,84.806267 354.845306,107.675255 338.494507,130.496048 
	C331.193573,140.685944 323.808685,150.815720 316.520599,161.014694 
	C315.044983,163.079697 313.938202,165.406937 312.479492,167.485596 
	C308.757111,172.789871 303.949188,169.803696 299.504883,168.973877 
	C292.371002,167.641876 285.263428,166.252914 278.000000,168.000000 
"/>
<path fill="none" opacity="1.000000" stroke="#000000" stroke-linecap="round" stroke-linejoin="round" stroke-width="6.000000"
	d="
M797.000000,329.500000 
	C793.322449,332.223511 792.493225,337.400299 788.070068,339.638458 
	C786.926270,340.217285 787.640930,342.437256 787.950684,344.009705 
	C791.014465,359.565643 795.598267,374.730042 799.791260,389.988647 
	C805.711670,411.533417 811.916077,433.000153 818.000793,454.499786 
	C818.661621,456.834747 819.364929,459.158203 819.991943,461.502167 
	C820.761719,464.379517 822.178345,467.099518 819.660950,470.133575 
	C818.850403,471.110504 819.644104,473.653687 819.900208,475.513733 
	C822.455139,494.065155 828.377747,511.829254 832.334229,530.036011 
	C835.314758,543.751892 838.719360,557.444763 840.027649,571.497437 
	C840.153625,572.850037 840.666626,574.166687 841.000000,575.500000 
"/>
<path fill="none" opacity="1.000000" stroke="#000000" stroke-linecap="round" stroke-linejoin="round" stroke-width="6.000000"
	d="
M404.500000,34.500000 
	C403.347748,39.659462 406.854706,42.234871 409.856354,45.627113 
	C415.360565,51.847610 420.310760,58.625084 424.943298,65.537987 
	C440.537262,88.808029 456.703247,111.696091 471.546143,135.471207 
	C476.757202,143.818253 482.686676,151.716553 487.906158,160.058731 
	C489.933228,163.298538 493.637543,163.178543 496.017059,165.482361 
	C515.470825,184.317062 535.508118,202.611511 550.541565,225.472656 
	C551.556213,227.015564 553.166687,228.166672 554.500000,229.500000 
"/>
<path fill="none" opacity="1.000000" stroke="#000000" stroke-linecap="round" stroke-linejoin="round" stroke-width="7.000000"
	d="
M169.000000,450.000000 
	C171.097122,456.993958 166.593933,462.693054 165.175873,468.983276 
	C163.581421,476.055939 161.421539,483.001343 159.496078,489.998932 
	C159.093628,491.461456 158.494690,492.599945 157.053101,493.578247 
	C153.391083,496.063538 152.112091,500.381287 150.045731,504.025940 
	C133.630310,532.979370 117.337234,562.002197 100.996109,590.997803 
	C98.357269,595.680176 95.145393,600.126892 93.186234,605.073730 
	C91.914360,608.285339 90.213852,608.716980 87.500000,608.500000 
"/>
<path fill="none" opacity="1.000000" stroke="#000000" stroke-linecap="round" stroke-linejoin="round" stroke-width="6.000000"
	d="
M258.000000,463.500000 
	C256.308716,465.086426 256.705994,467.059937 257.003418,468.999481 
	C259.794434,487.200043 263.574249,505.064606 272.446198,521.528992 
	C280.805603,537.042297 290.685638,551.288147 303.954102,563.051758 
	C305.796844,564.685547 308.532135,565.209473 309.991943,565.173523 
	C314.146881,565.071167 318.454926,568.206848 322.500000,565.000000 
"/>
<path fill="none" opacity="1.000000" stroke="#000000" stroke-linecap="round" stroke-linejoin="round" stroke-width="8.000000"
	d="
M159.000000,493.500000 
	C161.409729,496.546875 161.406296,499.930420 160.531204,503.507629 
	C160.175568,504.961395 160.106110,506.496094 160.009216,508.000580 
	C158.828354,526.333008 157.634216,544.664734 156.517746,563.001099 
	C156.132339,569.330750 156.115631,575.681274 155.780762,582.014832 
	C155.323669,590.660583 154.287598,599.312317 154.476120,608.038452 
	C153.224564,609.009766 151.846725,608.381042 150.500000,608.250000 
"/>
<path fill="none" opacity="1.000000" stroke="#000000" stroke-linecap="round" stroke-linejoin="round" stroke-width="8.000000"
	d="
M264.500000,179.000000 
	C261.459839,178.107407 259.765961,180.169891 258.004883,182.004684 
	C239.860336,200.908417 219.612015,217.592575 201.031006,236.031250 
	C196.387054,240.639633 191.019989,244.069489 185.669601,247.746765 
	C178.645187,252.574585 172.849991,259.184875 166.496994,264.996704 
	C145.171631,284.505432 123.951660,304.131958 102.433746,323.426086 
	C95.219307,329.894958 87.722015,336.414185 81.961548,343.857208 
	C77.454887,349.680237 73.797157,356.766510 69.360817,362.899323 
	C53.381718,384.988892 36.859921,406.686615 20.484217,428.488129 
	C15.419271,435.231232 9.968838,441.693390 5.102895,448.572784 
	C3.299504,451.122406 2.666666,454.500000 1.499999,457.500000 
"/>
<path fill="none" opacity="1.000000" stroke="#000000" stroke-linecap="round" stroke-linejoin="round" stroke-width="7.000000"
	d="
M1019.500000,372.000000 
	C1016.557251,373.390594 1014.594482,375.432007 1012.882507,378.432983 
	C994.013733,411.507538 976.578247,445.407745 956.040955,477.526184 
	C954.891357,479.324005 954.333313,481.500000 953.499939,483.500000 
"/>
<path fill="none" opacity="1.000000" stroke="#000000" stroke-linecap="round" stroke-linejoin="round" stroke-width="7.000000"
	d="
M442.000000,208.500000 
	C441.645813,215.140167 446.349365,219.724304 449.135010,224.927734 
	C463.881439,252.473419 479.116547,279.756805 493.541351,307.478485 
	C495.073181,310.422333 496.269012,313.855743 500.000000,315.000000 
"/>
<path fill="none" opacity="1.000000" stroke="#000000" stroke-linecap="round" stroke-linejoin="round" stroke-width="6.000000"
	d="
M859.000000,407.000000 
	C860.951477,404.461212 862.903015,401.922455 864.793823,399.462677 
	C867.165039,399.891846 868.943848,400.809296 870.532043,402.469360 
	C887.480469,420.185364 904.582214,437.755280 921.463623,455.534546 
	C929.342834,463.832733 936.953308,472.396423 944.430237,481.060211 
	C946.818115,483.827118 949.176086,484.769928 952.532166,483.390472 
	C957.572998,486.548615 955.314697,490.831512 953.365906,493.915253 
	C946.696167,504.469147 943.047607,516.117920 940.043518,528.010986 
	C935.022400,547.889343 929.143738,567.583374 926.515808,588.002014 
	C926.225037,590.261780 925.174927,592.142334 924.000000,594.000000 
"/>
<path fill="none" opacity="1.000000" stroke="#000000" stroke-linecap="round" stroke-linejoin="round" stroke-width="6.000000"
	d="
M902.500000,524.500000 
	C900.702515,506.005341 896.428894,487.986542 891.977356,470.005615 
	C891.307129,467.298584 890.338379,464.665039 889.497437,462.000824 
	C889.180115,460.995758 888.256531,459.711243 888.590027,459.045074 
	C891.609253,453.013885 886.960999,449.084900 884.363159,445.088959 
	C877.260498,434.163940 869.652832,423.554962 861.958679,413.030182 
	C853.599121,401.595001 844.349182,390.861694 836.361816,379.093781 
	C825.585022,363.216034 814.313538,347.612152 802.262756,332.691620 
	C797.467407,326.754303 792.248962,321.045197 787.511963,314.990662 
	C782.458862,308.532166 777.468445,302.023987 772.508789,295.493317 
	C767.468872,288.856934 762.572021,282.111053 757.479675,275.515717 
	C752.405640,268.944153 747.126282,262.531525 742.013428,255.989471 
	C738.278015,251.209869 734.593872,246.386200 731.030273,241.478012 
	C729.211975,238.973663 726.442627,238.010834 724.114136,236.340836 
	C720.403442,233.679474 717.419250,229.983582 715.009705,225.994125 
	C704.704041,208.931366 694.760193,191.655182 683.052673,175.461914 
	C673.790833,162.651245 664.966553,149.522903 656.036621,136.474945 
	C654.721375,134.553162 653.123901,133.261765 651.000000,132.500000 
"/>
<path fill="none" opacity="1.000000" stroke="#000000" stroke-linecap="round" stroke-linejoin="round" stroke-width="8.000000"
	d="
M235.500000,423.500000 
	C235.131836,433.342407 237.356262,443.120026 236.041031,453.005463 
	C234.847031,461.979645 234.006989,471.000793 232.997787,479.999756 
	C232.175247,487.334320 231.209579,494.655243 230.532089,502.002960 
	C229.727936,510.724213 228.566666,519.387207 227.000000,528.000000 
"/>
<path fill="none" opacity="1.000000" stroke="#000000" stroke-linecap="round" stroke-linejoin="round" stroke-width="6.000000"
	d="
M373.500000,421.500000 
	C377.549316,438.887421 382.829468,455.926178 387.967316,473.009827 
	C392.485779,488.033966 396.963837,503.072235 400.098450,518.479980 
	C400.708405,521.478149 399.299744,523.559937 398.500000,526.000000 
"/>
<path fill="none" opacity="1.000000" stroke="#000000" stroke-linecap="round" stroke-linejoin="round" stroke-width="7.000000"
	d="
M698.000000,450.500000 
	C694.097534,456.960632 688.702332,462.214386 683.419800,467.418610 
	C670.006836,480.632874 657.039917,494.167694 645.947876,509.462219 
	C636.444092,522.566772 631.400574,537.319885 628.494629,552.999023 
	C628.369629,553.673340 628.351074,554.469971 627.973145,554.980164 
	C616.413147,570.584961 609.752930,588.898254 600.050720,605.529602 
	C598.927124,607.455750 598.160095,609.231689 595.500000,608.250000 
"/>
<path fill="none" opacity="1.000000" stroke="#000000" stroke-linecap="round" stroke-linejoin="round" stroke-width="6.000000"
	d="
M228.500000,383.000000 
	C232.033279,386.615417 232.382690,391.547150 233.395187,396.023712 
	C236.929779,411.651093 245.080124,425.367615 250.930206,440.027863 
	C252.404877,443.723297 253.931503,447.430542 254.573135,451.488434 
	C256.149414,461.457153 263.382599,468.734711 267.762512,477.366791 
	C276.910095,495.395081 286.778748,513.106812 297.973206,530.017761 
	C304.760254,540.270691 312.259430,549.964966 319.979919,559.516235 
	C332.040741,574.437073 346.459534,587.035767 360.012482,600.487427 
	C362.144653,602.603699 364.259064,604.650757 364.000000,608.000000 
"/>
<path fill="none" opacity="1.000000" stroke="#000000" stroke-linecap="round" stroke-linejoin="round" stroke-width="7.000000"
	d="
M971.000000,513.500000 
	C974.370422,515.412781 975.686890,518.879272 977.514954,521.991211 
	C993.383545,549.003784 1007.157898,577.285095 1026.062378,602.453186 
	C1028.138916,605.217957 1029.478516,609.599854 1034.500000,608.500000 
"/>
<path fill="none" opacity="1.000000" stroke="#000000" stroke-linecap="round" stroke-linejoin="round" stroke-width="8.000000"
	d="
M235.999985,373.499969 
	C234.999985,374.166656 233.710281,374.621674 233.044754,375.532684 
	C226.389069,384.643463 217.606873,392.012085 211.865036,401.921783 
	C209.977585,405.179321 208.036743,408.699707 203.589752,410.256378 
	C200.777924,411.240631 199.031982,414.867798 196.921417,417.435425 
	C193.475174,421.627960 190.523560,426.164185 185.136566,428.781128 
	C182.204468,430.205475 180.749146,434.563995 178.482040,437.486053 
	C174.328094,442.840027 170.134995,447.937958 164.106934,451.672607 
	C156.627228,456.306580 151.878723,464.082428 146.102570,470.591034 
	C132.534134,485.880066 118.384399,500.714081 106.116867,517.087585 
	C100.101967,525.115662 91.173973,529.796997 84.970253,537.475952 
	C78.427567,545.574463 70.420647,552.273682 62.920238,559.416260 
	C45.839737,575.681702 28.306971,591.471619 11.033931,607.536499 
	C8.911996,609.510010 6.621606,607.873779 4.500000,608.500000 
"/>
<path fill="none" opacity="1.000000" stroke="#000000" stroke-linecap="round" stroke-linejoin="round" stroke-width="7.000000"
	d="
M581.500000,192.000000 
	C579.226135,192.961548 577.228516,194.491730 576.058838,196.533707 
	C569.451904,208.068008 562.530151,219.319412 554.928528,230.296722 
	C548.932495,238.955383 543.763977,248.409012 537.398254,256.923950 
	C533.392578,262.282074 531.213379,268.530731 527.575806,274.049957 
	C519.663635,286.054810 512.507324,298.566193 504.397858,310.430145 
	C497.236206,320.907471 491.834320,332.460114 484.062988,342.548523 
	C481.477600,345.904816 478.682159,348.499634 474.502960,349.512146 
	C459.495453,353.147949 444.488922,356.789001 429.506256,360.525146 
	C424.555878,361.759644 419.490021,360.787140 414.441772,361.665375 
	C411.743866,362.134735 408.884949,362.528442 406.551971,363.611908 
	C389.830261,371.377197 374.495087,381.164795 362.507507,395.506287 
	C360.047607,398.449219 356.055786,398.980408 353.398895,401.908234 
	C347.386963,408.533234 340.657898,414.502625 334.543274,421.040466 
	C326.415680,429.730560 317.239990,436.583435 305.500000,439.500000 
"/>
<path fill="none" opacity="1.000000" stroke="#000000" stroke-linecap="round" stroke-linejoin="round" stroke-width="5.000000"
	d="
M533.500000,426.500000 
	C516.451172,444.181213 503.422028,464.707245 491.523956,486.013397 
	C486.569763,494.885010 483.690155,504.525635 482.093536,514.514954 
	C481.802429,516.336243 481.338348,518.258606 480.399811,519.418945 
	C472.569702,529.099670 468.761353,540.980347 462.500000,551.500000 
"/>
<path fill="none" opacity="1.000000" stroke="#000000" stroke-linecap="round" stroke-linejoin="round" stroke-width="6.000000"
	d="
M821.500000,563.500000 
	C808.214905,567.232117 796.967651,575.194702 785.124023,581.724915 
	C772.257324,588.819275 759.061951,595.340454 746.453796,602.923218 
	C743.955933,604.425476 741.236877,605.484375 738.959106,607.452637 
	C736.493286,609.583435 733.325806,608.102905 730.500000,608.500000 
"/>
<path fill="none" opacity="1.000000" stroke="#000000" stroke-linecap="round" stroke-linejoin="round" stroke-width="6.000000"
	d="
M822.000000,467.000000 
	C825.015991,467.915894 826.179077,470.502350 827.513489,472.992767 
	C831.810547,481.012177 835.004150,489.986145 840.763794,496.776245 
	C850.149475,507.841034 856.560974,520.628967 864.421570,532.551697 
	C869.181030,539.770813 873.166687,547.500000 877.500000,555.000000 
"/>
<path fill="none" opacity="1.000000" stroke="#000000" stroke-linecap="round" stroke-linejoin="round" stroke-width="7.000000"
	d="
M309.500000,240.500000 
	C310.766968,242.926651 310.635345,245.167770 310.216064,248.031631 
	C307.810059,264.466248 302.042542,280.120117 299.417358,296.486755 
	C298.842194,300.072723 296.449829,303.183594 294.852783,306.427521 
	C281.683319,333.177856 268.371674,359.863617 253.994400,385.996918 
	C253.705795,386.521515 253.333344,387.000000 253.000015,387.500000 
"/>
<path fill="none" opacity="1.000000" stroke="#000000" stroke-linecap="round" stroke-linejoin="round" stroke-width="6.000000"
	d="
M1020.000000,364.500000 
	C1020.000000,366.333344 1020.142273,368.180817 1019.961609,369.996185 
	C1019.765076,371.971832 1020.628601,374.031128 1022.032471,374.362488 
	C1028.428833,375.872314 1030.290039,381.814209 1033.341553,386.112488 
	C1048.192017,407.030365 1062.463501,428.358551 1077.040161,449.472229 
	C1079.175537,452.565094 1081.447876,455.426605 1080.500000,459.500000 
"/>
<path fill="none" opacity="1.000000" stroke="#000000" stroke-linecap="round" stroke-linejoin="round" stroke-width="7.000000"
	d="
M100.000000,525.500000 
	C101.534691,529.138550 100.190094,532.243286 98.551430,535.525696 
	C92.092659,548.463074 85.849152,561.507751 79.494995,574.497559 
	C74.352890,585.009583 69.026291,595.434875 64.103455,606.047974 
	C62.942822,608.550232 61.705532,608.911072 59.500000,608.250000 
"/>
<path fill="none" opacity="1.000000" stroke="#000000" stroke-linecap="round" stroke-linejoin="round" stroke-width="5.000000"
	d="
M788.250000,339.000000 
	C786.213135,338.404327 785.326965,336.929718 784.434570,335.030762 
	C774.482422,313.853851 761.328064,294.620880 748.000061,275.499969 
	C744.166504,270.000092 741.105469,263.655212 736.278137,259.242767 
	C731.651306,255.013687 729.206421,249.634186 725.565857,244.948837 
	C723.969116,242.893967 723.135925,240.272812 724.000000,237.500000 
"/>
<path fill="none" opacity="1.000000" stroke="#000000" stroke-linecap="round" stroke-linejoin="round" stroke-width="6.000000"
	d="
M210.500000,351.000000 
	C211.153046,353.391876 211.077209,355.632111 210.043411,358.018799 
	C201.466812,377.818970 193.069016,397.696777 184.440414,417.473999 
	C182.761810,421.321442 183.433121,424.833344 184.500000,428.500000 
"/>
<path fill="none" opacity="1.000000" stroke="#000000" stroke-linecap="round" stroke-linejoin="round" stroke-width="8.000000"
	d="
M40.500000,304.000000 
	C38.305622,305.560242 36.795624,307.522858 35.394600,309.938873 
	C24.724909,328.338379 15.350723,347.433533 5.002506,366.001404 
	C2.838609,369.884064 2.906285,374.400421 1.500000,378.500000 
"/>
<path fill="none" opacity="1.000000" stroke="#000000" stroke-linecap="round" stroke-linejoin="round" stroke-width="6.000000"
	d="
M1022.000000,375.000000 
	C1019.912537,381.425598 1022.218628,387.718567 1022.909119,393.982452 
	C1023.625610,400.482635 1025.167847,406.904388 1024.902710,413.496094 
	C1024.874634,414.191864 1024.355103,414.745667 1024.983521,415.513519 
	C1031.486694,423.459747 1033.563721,433.548431 1037.924561,442.536591 
	C1043.782593,454.610443 1049.117432,467.200745 1051.996704,480.112244 
	C1054.322021,490.539490 1062.324097,497.537354 1064.500000,507.500000 
"/>
<path fill="none" opacity="1.000000" stroke="#000000" stroke-linecap="round" stroke-linejoin="round" stroke-width="7.000000"
	d="
M361.000000,398.000000 
	C362.993073,403.833435 359.556915,408.840668 358.081665,413.951416 
	C353.281433,430.581238 347.787598,447.012177 342.450073,463.483826 
	C341.817444,465.436188 340.500031,467.166687 339.500031,469.000000 
"/>
<path fill="none" opacity="1.000000" stroke="#000000" stroke-linecap="round" stroke-linejoin="round" stroke-width="5.000000"
	d="
M1015.500000,423.000000 
	C1013.543213,422.941345 1011.858215,423.538452 1010.497620,424.997803 
	C993.739075,442.971497 976.478821,460.531921 963.983887,481.990601 
	C962.125854,485.181580 959.534790,487.269470 955.500000,486.500000 
"/>
<path fill="none" opacity="1.000000" stroke="#000000" stroke-linecap="round" stroke-linejoin="round" stroke-width="6.000000"
	d="
M1024.000000,415.000000 
	C1019.573242,417.576752 1016.189758,420.054260 1016.141296,426.497314 
	C1016.097595,432.304749 1011.333008,437.259735 1008.463928,442.480194 
	C998.339600,460.902039 985.580994,477.770844 976.189392,496.594513 
	C974.169250,500.643463 973.520264,505.388641 971.118713,509.568207 
	C966.410950,517.761658 963.816833,526.897156 961.590820,536.022156 
	C959.570435,544.304077 956.736633,552.374573 955.759827,560.972717 
	C955.380127,564.315735 952.492065,567.331177 951.349548,570.952515 
	C948.045044,581.427368 946.620361,592.133118 946.063477,603.003235 
	C945.964417,604.937561 945.564148,606.708618 944.998962,608.095642 
	C939.825012,611.092529 937.604858,605.949036 935.197449,603.780762 
	C928.008301,597.305786 919.721130,593.369568 911.176514,589.143188 
	C902.643616,584.922729 893.846985,581.093079 885.576111,576.366821 
	C881.067993,573.790710 875.948120,573.540833 871.407043,571.178711 
	C868.769165,569.806580 866.323242,568.763123 865.000000,566.000000 
"/>
<path fill="none" opacity="1.000000" stroke="#000000" stroke-linecap="round" stroke-linejoin="round" stroke-width="5.000000"
	d="
M378.000000,510.000000 
	C377.122223,512.924988 377.661438,515.351074 379.417816,518.053406 
	C390.494934,535.096802 400.838226,552.571350 409.556213,570.973389 
	C410.773163,573.542114 412.131866,576.368103 415.500000,577.000000 
"/>
<path fill="none" opacity="1.000000" stroke="#000000" stroke-linecap="round" stroke-linejoin="round" stroke-width="5.000000"
	d="
M841.000000,499.000000 
	C839.591919,501.166656 839.975525,503.176636 840.935425,505.526367 
	C845.803894,517.443420 849.343018,529.831787 853.587158,541.969543 
	C856.365845,549.916077 859.390869,557.839661 864.000000,565.000000 
"/>
<path fill="none" opacity="1.000000" stroke="#000000" stroke-linecap="round" stroke-linejoin="round" stroke-width="3.000000"
	d="
M430.500000,531.500000 
	C431.153961,541.961304 435.029022,551.550476 439.131622,560.942505 
	C441.893097,567.264282 443.217773,574.412109 448.486298,579.514160 
	C449.416107,580.414551 450.061005,581.617310 451.018402,582.479614 
	C455.142151,586.193909 459.929535,589.361206 463.319916,593.642578 
	C466.272858,597.371582 467.981323,602.108398 470.876373,606.089905 
	C472.258392,607.990662 473.252747,608.994507 475.500000,608.250000 
"/>
<path fill="none" opacity="1.000000" stroke="#000000" stroke-linecap="round" stroke-linejoin="round" stroke-width="7.000000"
	d="
M903.000000,538.000000 
	C898.804321,538.206482 896.827576,541.825623 894.054260,544.067139 
	C880.429871,555.078613 866.275330,565.456970 850.362610,572.698059 
	C843.243835,575.937439 835.458801,578.458374 828.173401,581.425781 
	C819.402222,584.998474 811.067932,590.135010 802.478210,594.456665 
	C795.753784,597.839844 788.000366,599.780029 782.255554,604.323181 
	C777.395874,608.166382 772.825256,608.585144 767.500000,608.500000 
"/>
<path fill="none" opacity="1.000000" stroke="#000000" stroke-linecap="round" stroke-linejoin="round" stroke-width="5.000000"
	d="
M490.500000,163.500000 
	C489.521545,166.594238 490.095825,169.290863 491.958527,172.028229 
	C501.121094,185.493210 507.483246,200.238663 511.471069,216.007309 
	C512.174622,218.789169 512.500000,221.666672 513.000000,224.500000 
"/>
<path fill="none" opacity="1.000000" stroke="#000000" stroke-linecap="round" stroke-linejoin="round" stroke-width="6.000000"
	d="
M629.000000,554.000000 
	C637.155334,557.424561 646.001343,557.342468 654.514771,558.920349 
	C663.615906,560.607239 672.814880,561.824463 682.011902,562.897888 
	C684.564026,563.195740 686.716248,564.159729 689.000000,565.000000 
"/>
<path fill="none" opacity="1.000000" stroke="#000000" stroke-linecap="round" stroke-linejoin="round" stroke-width="5.000000"
	d="
M490.000000,224.500000 
	C488.907776,226.972931 490.633911,228.378174 491.985474,230.012009 
	C503.389801,243.798508 510.810333,259.701355 516.463318,276.512329 
	C517.303955,279.012238 518.689697,280.829651 521.000000,282.000000 
"/>
<path fill="none" opacity="1.000000" stroke="#000000" stroke-linecap="round" stroke-linejoin="round" stroke-width="7.000000"
	d="
M1029.000000,551.500000 
	C1028.903076,555.582336 1032.052856,557.625183 1034.524902,559.973816 
	C1049.140991,573.860291 1063.783447,587.720581 1078.566528,601.428223 
	C1080.310791,603.045532 1080.857056,604.416687 1080.250000,606.500000 
"/>
<path fill="none" opacity="1.000000" stroke="#000000" stroke-linecap="round" stroke-linejoin="round" stroke-width="6.000000"
	d="
M1080.250000,578.500000 
	C1080.100098,577.116638 1081.225220,576.154175 1078.629272,574.759460 
	C1064.374023,567.100647 1049.741455,560.102783 1035.991699,551.513306 
	C1035.557129,551.241821 1034.997559,551.014587 1034.500366,551.022400 
	C1024.802856,551.174622 1020.226562,543.171631 1014.062378,537.926697 
	C1001.836914,527.524292 990.832825,515.729065 977.991882,506.010742 
	C977.221436,505.427673 976.333313,505.000000 975.500000,504.500000 
"/>
<path fill="none" opacity="1.000000" stroke="#000000" stroke-linecap="round" stroke-linejoin="round" stroke-width="5.000000"
	d="
M480.500000,520.000000 
	C481.981659,521.565613 482.298126,523.518311 481.974548,525.495850 
	C479.663086,539.622681 479.256256,553.784973 481.004608,567.999451 
	C481.224548,569.787537 480.520325,571.370728 480.000000,573.000000 
"/>
<path fill="none" opacity="1.000000" stroke="#000000" stroke-linecap="round" stroke-linejoin="round" stroke-width="6.000000"
	d="
M225.500000,527.750000 
	C226.919785,527.848389 227.533783,528.974365 227.971359,530.012085 
	C234.890533,546.420532 245.463013,560.654419 255.064087,575.458435 
	C256.118896,577.084839 256.855438,578.738953 257.500000,580.500000 
"/>
<path fill="none" opacity="1.000000" stroke="#000000" stroke-linecap="round" stroke-linejoin="round" stroke-width="6.000000"
	d="
M931.000000,503.250000 
	C921.156311,493.745880 913.995911,482.086609 905.497925,471.501678 
	C902.010681,467.158112 898.307251,462.970123 895.089722,458.436310 
	C893.696167,456.472687 891.998962,455.417938 890.000000,454.500000 
"/>
<path fill="none" opacity="1.000000" stroke="#000000" stroke-linecap="round" stroke-linejoin="round" stroke-width="7.000000"
	d="
M1004.500000,453.000000 
	C1023.415955,455.969025 1035.364380,468.555511 1046.036011,482.973297 
	C1047.589844,485.072571 1048.656860,488.390961 1052.500000,487.000000 
"/>
<path fill="none" opacity="1.000000" stroke="#000000" stroke-linecap="round" stroke-linejoin="round" stroke-width="7.000000"
	d="
M956.500000,561.500000 
	C963.211609,567.343140 968.490417,574.509094 974.480896,581.017578 
	C982.391907,589.612793 990.275269,598.239502 997.910767,607.077087 
	C999.487122,608.901489 1000.839478,608.411133 1002.500000,608.250000 
"/>
<path fill="none" opacity="1.000000" stroke="#000000" stroke-linecap="round" stroke-linejoin="round" stroke-width="8.000000"
	d="
M303.500000,564.000000 
	C296.311707,568.324829 288.345428,571.190186 280.438873,573.267273 
	C261.613861,578.212708 245.362595,587.897522 229.559814,598.588440 
	C225.250671,601.503601 220.612854,603.979553 216.847672,607.851868 
	C214.941666,609.812134 211.326431,608.216064 208.500000,608.500000 
"/>
<path fill="none" opacity="1.000000" stroke="#000000" stroke-linecap="round" stroke-linejoin="round" stroke-width="6.000000"
	d="
M1080.500000,530.500000 
	C1063.683105,532.273071 1047.434570,536.498047 1031.523560,542.067139 
	C1029.188599,542.884399 1027.188232,544.623718 1026.000000,547.000000 
"/>
<path fill="none" opacity="1.000000" stroke="#000000" stroke-linecap="round" stroke-linejoin="round" stroke-width="6.000000"
	d="
M300.500000,297.000000 
	C316.500000,300.166656 332.500000,303.333313 348.500000,306.500000 
"/>
<path fill="none" opacity="1.000000" stroke="#000000" stroke-linecap="round" stroke-linejoin="round" stroke-width="7.000000"
	d="
M533.500000,261.500000 
	C528.742310,260.342377 526.275146,256.312439 523.588806,252.929474 
	C516.124695,243.529633 507.791229,235.019547 498.446899,227.566574 
	C492.205353,222.588379 484.477264,220.286133 476.962982,218.128937 
	C467.666290,215.460037 458.441864,212.687744 449.498840,209.002792 
	C447.579803,208.212036 445.775024,207.369293 443.483307,207.932053 
	C440.395172,208.690369 439.550812,205.587448 438.055359,203.949448 
	C433.827271,199.318390 430.407684,194.013260 426.099731,189.406723 
	C424.836182,188.055634 423.578827,187.172684 422.000000,186.500000 
"/>
<path fill="none" opacity="1.000000" stroke="#000000" stroke-linecap="round" stroke-linejoin="round" stroke-width="7.000000"
	d="
M704.500000,543.000000 
	C699.159912,546.191833 697.768311,552.120483 695.079285,557.043274 
	C686.037537,573.596130 677.229004,590.279724 668.610352,607.056702 
	C667.287842,609.630920 665.897705,608.039246 664.500000,608.250000 
"/>
<path fill="none" opacity="1.000000" stroke="#000000" stroke-linecap="round" stroke-linejoin="round" stroke-width="6.000000"
	d="
M510.500000,608.500000 
	C503.105042,609.558472 496.497040,607.350891 489.962250,604.075317 
	C484.298767,601.236450 478.342255,599.004578 472.976349,595.536621 
	C470.737793,594.089844 468.217438,593.202515 465.500000,594.500000 
"/>
<path fill="none" opacity="1.000000" stroke="#000000" stroke-linecap="round" stroke-linejoin="round" stroke-width="6.000000"
	d="
M313.500000,168.000000 
	C317.575073,171.943268 323.099365,171.251450 328.008911,172.463852 
	C337.467987,174.799728 347.450378,174.858643 356.500000,179.000000 
"/>
<path fill="none" opacity="1.000000" stroke="#000000" stroke-linecap="round" stroke-linejoin="round" stroke-width="8.000000"
	d="
M236.500000,370.500000 
	C236.745056,371.486938 235.894684,372.738098 237.010300,373.484619 
	C242.862579,377.400726 245.774521,384.254669 252.305466,387.853058 
	C255.252670,389.476929 256.517365,394.546448 259.420959,397.575745 
	C262.498627,400.786530 264.735138,404.406616 269.409485,406.231812 
	C274.056519,408.046326 276.821106,412.996033 280.909393,416.118622 
	C288.970612,422.275665 296.723419,428.842133 303.109314,436.913513 
	C305.294189,439.675049 306.227997,443.206879 308.997864,445.502563 
	C313.730682,449.425110 318.565857,453.195465 323.144684,457.340179 
	C328.140076,461.861938 332.510986,467.547394 339.500000,469.500000 
	C345.182037,478.151306 353.775513,483.898163 361.063538,490.934204 
	C366.684265,496.360535 372.643036,501.485413 376.880310,508.076935 
	C378.525696,510.636444 381.456299,509.414215 383.025635,511.480530 
	C388.826660,519.118713 397.424316,524.176086 402.505585,532.496582 
	C403.131439,533.521484 404.317322,534.450195 404.426178,535.507629 
	C405.716125,548.035828 413.949036,558.505432 415.635864,570.550964 
	C417.522980,584.026611 424.987244,594.630920 429.782288,606.587341 
	C430.951813,609.503540 432.116638,608.100037 433.500000,608.250000 
"/>
<path fill="none" opacity="1.000000" stroke="#000000" stroke-linecap="round" stroke-linejoin="round" stroke-width="6.000000"
	d="
M97.500000,326.000000 
	C94.733452,322.299713 90.258400,322.381256 86.469772,321.658447 
	C79.240570,320.279266 71.843407,319.714172 64.492134,319.093109 
	C62.879215,318.956848 61.166664,320.000000 59.499996,320.500000 
"/>
<path fill="none" opacity="1.000000" stroke="#000000" stroke-linecap="round" stroke-linejoin="round" stroke-width="9.000000"
	d="
M947.000000,484.500000 
	C941.772766,490.922668 936.927429,497.608307 931.424927,503.873199 
	C925.066223,511.112854 918.377197,518.255188 912.432007,525.947449 
	C910.054077,529.024170 906.965576,531.564636 905.016052,535.009094 
	C904.062256,536.694153 903.069946,538.239319 903.898560,540.536621 
	C904.743591,542.879395 902.871033,544.667480 901.531372,546.522644 
	C895.008423,555.556152 887.510498,563.919373 882.500000,574.000000 
"/>
<path fill="none" opacity="1.000000" stroke="#000000" stroke-linecap="round" stroke-linejoin="round" stroke-width="5.000000"
	d="
M329.000000,399.500000 
	C326.025940,398.996857 324.593597,401.275330 323.028839,403.025757 
	C315.630951,411.301392 308.333313,419.666656 301.000000,428.000000 
"/>
<path fill="none" opacity="1.000000" stroke="#000000" stroke-linecap="round" stroke-linejoin="round" stroke-width="8.000000"
	d="
M920.500000,608.500000 
	C916.744507,608.394104 913.440552,608.381409 909.846985,605.705444 
	C900.917603,599.056030 891.989502,600.090149 883.026428,607.531860 
	C882.064270,608.330627 881.131653,608.515747 879.999939,608.508362 
	C876.500122,608.485413 873.000000,608.500000 869.500000,608.500000 
"/>
<path fill="none" opacity="1.000000" stroke="#000000" stroke-linecap="round" stroke-linejoin="round" stroke-width="7.000000"
	d="
M307.000000,171.500000 
	C304.266632,179.223038 298.185394,184.650848 293.375732,190.904434 
	C290.989441,194.007126 288.991913,198.011734 284.500000,199.000000 
"/>
<path fill="none" opacity="1.000000" stroke="#000000" stroke-linecap="round" stroke-linejoin="round" stroke-width="3.000000"
	d="
M1052.500000,509.500000 
	C1055.898193,513.746155 1058.297852,518.860352 1063.477905,521.542603 
	C1065.659424,522.672119 1067.937744,523.590149 1070.088745,524.848267 
	C1072.513550,526.266418 1073.224609,528.260925 1074.000000,530.500000 
"/>
<path fill="none" opacity="1.000000" stroke="#000000" stroke-linecap="round" stroke-linejoin="round" stroke-width="8.000000"
	d="
M372.500000,608.500000 
	C361.500000,608.500000 350.500000,608.500000 339.500000,608.500000 
"/>
<path fill="none" opacity="1.000000" stroke="#000000" stroke-linecap="round" stroke-linejoin="round" stroke-width="8.000000"
	d="
M39.500000,299.500000 
	C39.957199,301.629395 40.647030,303.340088 42.369473,305.125885 
	C47.539291,310.485931 53.648266,315.266907 58.046925,320.856537 
	C63.313450,327.549042 69.539085,333.132568 75.024162,339.479126 
	C76.667816,341.380951 78.435226,343.253021 81.000000,344.000000 
"/>
<path fill="none" opacity="1.000000" stroke="#000000" stroke-linecap="round" stroke-linejoin="round" stroke-width="6.000000"
	d="
M910.500000,590.000000 
	C908.655701,592.214355 906.591187,594.371033 903.958862,595.394165 
	C901.345642,596.409851 900.019104,598.185791 899.000000,600.500000 
"/>
<path fill="none" opacity="1.000000" stroke="#000000" stroke-linecap="round" stroke-linejoin="round" stroke-width="4.000000"
	d="
M1080.500000,521.500000 
	C1076.505371,521.795044 1072.461304,520.906067 1068.500000,522.000000 
"/>
</svg>