<svg version="1.1" id="Layer_1" xmlns="http://www.w3.org/2000/svg" xmlns:xlink="http://www.w3.org/1999/xlink" x="0px" y="0px"
	 width="100%" viewBox="0 0 1080 608" enable-background="new 0 0 1080 608" xml:space="preserve">
<path fill="none" opacity="1.000000" stroke="#000000" stroke-linecap="round" stroke-linejoin="round" stroke-width="7.000000"
	d="
M454.000000,143.000000 
	C456.498749,145.081314 457.109711,147.985489 457.797394,150.989151 
	C460.067596,160.904892 462.193481,170.797592 463.109314,180.990173 
	C464.291656,194.149231 465.296143,207.304855 466.156891,220.489761 
	C467.027496,233.825882 467.988190,247.173035 469.141052,260.487793 
	C470.166656,272.332031 470.712616,284.237793 472.694183,296.009399 
	C474.557434,307.078094 479.577362,316.949493 484.095764,326.956757 
	C492.208191,344.924225 499.678497,363.069427 503.463440,382.507111 
	C504.779327,389.264893 505.359283,396.139343 506.159149,402.981384 
	C507.764221,416.710663 506.144257,430.341675 505.875427,443.997559 
	C505.629120,456.509094 504.338104,469.000336 503.498474,481.499908 
	C502.805908,491.809570 506.904999,501.100433 510.095825,510.467346 
	C519.324829,537.559692 528.967651,564.511475 538.551880,591.481567 
	C539.469421,594.063416 540.103210,597.164185 543.500000,598.000000 
"/>
<path fill="none" opacity="1.000000" stroke="#000000" stroke-linecap="round" stroke-linejoin="round" stroke-width="7.000000"
	d="
M435.500000,295.000000 
	C438.038940,299.502106 437.307739,304.751343 438.915771,309.528351 
	C443.489044,323.114258 447.565125,336.866577 452.026642,350.491272 
	C457.193481,366.269928 460.284149,382.366791 458.909485,398.992523 
	C458.065491,409.199646 457.049500,419.495789 454.791046,429.452606 
	C452.689545,438.717560 453.665985,446.857178 457.348694,455.563995 
	C468.550751,482.048431 478.627380,508.972046 490.743805,535.118713 
	C501.569733,558.480652 512.065735,582.090576 520.471802,606.509705 
	C521.250549,608.771912 522.673828,608.793091 524.500000,608.250000 
"/>
<path fill="none" opacity="1.000000" stroke="#000000" stroke-linecap="round" stroke-linejoin="round" stroke-width="7.000000"
	d="
M890.000000,245.500000 
	C889.892944,248.313477 890.639343,250.551956 892.364258,253.092178 
	C903.957947,270.165344 913.119141,288.513947 920.021667,307.992340 
	C925.399719,323.168762 933.781433,336.583344 943.948669,349.041901 
	C957.821106,366.040619 971.228760,383.417999 985.041626,400.466278 
	C992.579956,409.770355 1001.374878,418.092407 1007.468079,428.518677 
	C1017.179077,445.135681 1025.850342,462.319885 1034.440796,479.529541 
	C1040.607666,491.883789 1048.165527,503.371185 1055.545288,514.971191 
	C1061.994873,525.109253 1068.530884,535.222290 1075.639282,544.897705 
	C1078.768555,549.157104 1081.600220,552.975220 1080.500000,558.500000 
"/>
<path fill="none" opacity="1.000000" stroke="#000000" stroke-linecap="round" stroke-linejoin="round" stroke-width="8.000000"
	d="
M675.000000,45.000000 
	C675.453308,46.350845 676.531921,47.347057 676.552124,48.999363 
	C676.725647,63.175461 678.184204,77.286438 678.250000,91.498840 
	C678.297058,101.671463 680.282959,111.904572 682.151917,121.971794 
	C683.181458,127.517220 686.997070,131.798416 690.836670,136.144318 
	C697.748108,143.966843 703.768860,152.591736 709.958191,161.030685 
	C713.196289,165.445786 716.668884,169.671234 719.944458,174.041626 
	C733.178467,191.698761 747.510559,208.461288 761.540588,225.466537 
	C770.476807,236.297745 780.074158,246.538849 789.714172,256.769318 
	C796.543762,264.017181 802.939270,271.889404 809.539307,279.465729 
	C825.197266,297.439636 837.981323,317.713165 854.356323,335.135010 
	C856.977600,337.923859 860.559326,338.247223 863.072510,340.932159 
	C872.722351,351.241302 884.834534,358.728973 895.052124,368.445190 
	C905.651550,378.524536 916.555298,388.293030 927.528992,397.967041 
	C940.453918,409.361237 953.091614,421.028900 965.046997,433.454803 
	C973.317322,442.050659 977.644958,452.977356 983.470337,463.017212 
	C992.838684,479.163330 1000.202393,496.537964 1011.662903,511.374176 
	C1016.870239,518.115234 1023.574036,523.797913 1030.053467,529.438538 
	C1043.946411,541.532959 1057.009399,554.471924 1070.012085,567.487915 
	C1072.427490,569.905762 1074.764282,572.517334 1077.566406,574.401306 
	C1080.365845,576.283508 1080.762939,578.625427 1080.500000,581.500000 
"/>
<path fill="none" opacity="1.000000" stroke="#000000" stroke-linecap="round" stroke-linejoin="round" stroke-width="7.000000"
	d="
M349.000000,257.500000 
	C350.516418,260.836060 348.423828,263.826385 347.336395,266.431702 
	C339.605896,284.952667 336.133453,304.577698 332.123840,324.025543 
	C329.337799,337.538696 327.844208,351.309845 325.861572,364.979919 
	C323.691528,379.941986 318.263672,394.050171 312.542145,408.017273 
	C307.644836,419.972168 302.332764,431.813934 299.534943,444.507690 
	C297.287842,454.702850 295.413635,465.010986 297.097595,475.484314 
	C297.616119,478.709290 295.496033,481.000244 295.390533,483.996155 
	C295.138611,491.149475 293.770996,498.166107 291.519867,505.006531 
	C287.566925,517.018005 280.996704,527.743103 273.823395,537.875000 
	C264.497681,551.047058 258.438293,565.561646 253.000000,580.500000 
"/>
<path fill="none" opacity="1.000000" stroke="#000000" stroke-linecap="round" stroke-linejoin="round" stroke-width="6.000000"
	d="
M447.000000,104.500000 
	C447.120972,107.730011 446.245209,110.068642 443.675385,112.673058 
	C438.579041,117.837967 435.222626,124.431778 431.912964,130.955841 
	C430.427765,133.883484 432.969879,136.105835 432.142151,139.040100 
	C428.878784,150.608963 426.341125,162.380341 423.213562,173.990173 
	C416.794342,197.818848 406.075592,219.837143 394.542694,241.522705 
	C388.195374,253.457703 381.772095,265.342194 377.888275,278.466949 
	C374.679810,289.309601 373.732605,300.447845 371.951599,311.492188 
	C370.172058,322.527740 369.804779,334.265686 365.544830,344.306885 
	C360.175018,356.964233 355.773712,370.002777 350.136200,382.561157 
	C341.938538,400.822784 334.540070,419.448944 327.048309,438.019501 
	C322.682983,448.840271 324.084930,459.218811 330.483368,469.010864 
	C341.418121,485.745239 354.270782,501.120056 365.075439,517.951599 
	C366.517944,520.198730 368.637604,522.237793 371.500000,523.000000 
"/>
<path fill="none" opacity="1.000000" stroke="#000000" stroke-linecap="round" stroke-linejoin="round" stroke-width="6.000000"
	d="
M817.500000,405.000000 
	C818.189636,408.301392 817.027710,411.115204 815.540100,414.020538 
	C798.313965,447.664246 781.171387,481.345093 763.087830,514.547852 
	C750.840393,537.035034 735.539673,557.320862 720.013367,577.510254 
	C713.267212,586.282471 706.674133,595.172363 699.994690,603.995972 
	C698.329346,606.195862 697.281128,609.331970 693.500000,608.500000 
"/>
<path fill="none" opacity="1.000000" stroke="#000000" stroke-linecap="round" stroke-linejoin="round" stroke-width="7.000000"
	d="
M453.500000,122.000000 
	C459.099121,124.163269 460.970276,129.593155 463.995667,134.002975 
	C475.875214,151.318756 487.429382,168.841644 498.046753,186.972626 
	C499.609100,189.640656 500.250244,191.897980 499.116608,195.042038 
	C497.486359,199.563370 499.913391,204.065948 500.671478,208.470490 
	C503.037476,222.217590 506.670563,235.755661 508.793915,249.531769 
	C509.906586,256.750732 510.790131,264.095673 511.131714,271.493927 
	C511.941498,289.030884 513.861755,306.463318 518.472229,323.507507 
	C522.586609,338.717987 524.545410,354.276886 524.941345,370.001465 
	C525.144287,378.059570 525.829163,386.026825 526.779541,394.026184 
	C527.136658,397.031311 526.593811,400.278625 526.890137,403.510071 
	C527.850769,413.983124 528.656067,424.492950 528.885864,435.002502 
	C529.037476,441.934814 530.746643,447.382019 535.256226,453.189301 
	C550.072510,472.269165 561.728882,493.270996 569.010376,516.496765 
	C575.139954,536.048401 580.561279,555.768738 584.067871,575.988220 
	C584.519958,578.595154 585.307068,581.277161 587.000000,583.500000 
"/>
<path fill="none" opacity="1.000000" stroke="#000000" stroke-linecap="round" stroke-linejoin="round" stroke-width="7.000000"
	d="
M874.500000,409.000000 
	C871.460999,414.353912 874.342407,419.154785 876.030396,423.989380 
	C880.465027,436.690613 884.936279,449.397491 887.883728,462.526093 
	C889.233704,468.539368 889.514832,474.820160 889.963867,481.002625 
	C891.039673,495.814484 891.395813,510.670776 892.217285,525.487976 
	C892.827087,536.485718 893.292175,547.503540 893.924255,558.504333 
	C894.880859,575.154358 895.333313,591.833313 896.000000,608.500000 
"/>
<path fill="none" opacity="1.000000" stroke="#000000" stroke-linecap="round" stroke-linejoin="round" stroke-width="7.000000"
	d="
M687.000000,133.500000 
	C683.539612,136.139587 686.091064,139.467407 686.683289,141.956390 
	C690.486877,157.940964 691.332092,174.257690 693.105408,190.488480 
	C694.705688,205.134735 694.533875,219.868195 696.032166,234.496704 
	C697.007751,244.022049 701.360596,252.449783 706.123657,260.426147 
	C713.593750,272.935791 720.882446,285.531647 727.463684,298.518402 
	C736.931763,317.201630 745.908569,336.132782 755.989990,354.505493 
	C767.865967,376.148773 779.663635,397.835022 791.513184,419.492798 
	C791.909119,420.216370 792.500000,420.833344 793.000000,421.500000 
"/>
<path fill="none" opacity="1.000000" stroke="#000000" stroke-linecap="round" stroke-linejoin="round" stroke-width="7.000000"
	d="
M366.500000,344.500000 
	C371.863739,347.411377 371.796295,352.021881 371.675476,357.503876 
	C371.275299,375.661224 371.393280,393.829224 371.874969,412.003326 
	C372.417908,432.488922 371.877014,453.000977 372.042053,473.499664 
	C372.157471,487.834747 373.299133,502.190735 372.754974,516.490662 
	C372.444916,524.639771 373.456879,532.110657 376.463501,539.514832 
	C376.893768,540.574463 377.285706,541.998230 376.929810,542.974426 
	C373.519775,552.327881 377.387085,561.172913 379.184692,569.962219 
	C381.886169,583.170837 384.792603,596.476807 392.000000,608.250000 
"/>
<path fill="none" opacity="1.000000" stroke="#000000" stroke-linecap="round" stroke-linejoin="round" stroke-width="7.000000"
	d="
M666.500000,362.500000 
	C668.370361,374.107941 667.934326,385.812927 668.011475,397.499939 
	C668.135742,416.333557 667.939392,435.180969 668.622498,453.995544 
	C669.186462,469.531647 668.367676,485.000397 668.132568,500.502014 
	C667.958313,511.991791 668.999939,523.500000 669.499939,535.000000 
"/>
<path fill="none" opacity="1.000000" stroke="#000000" stroke-linecap="round" stroke-linejoin="round" stroke-width="6.000000"
	d="
M677.000000,535.500000 
	C672.192688,535.454346 667.603455,535.501892 662.864380,533.290588 
	C659.777588,531.850281 655.987061,530.432861 651.985535,530.866455 
	C649.844116,531.098511 647.978027,530.052795 647.372131,527.025574 
	C646.096985,520.654419 644.790833,514.282104 643.119812,507.968292 
	C638.266174,489.629639 629.281982,473.556458 618.053345,458.460327 
	C606.629639,443.101990 590.630554,433.457825 574.908264,423.647003 
	C560.860779,414.881256 547.106018,405.666229 533.055481,396.910950 
	C531.246277,395.783600 529.463135,395.047760 527.500000,394.500000 
"/>
<path fill="none" opacity="1.000000" stroke="#000000" stroke-linecap="round" stroke-linejoin="round" stroke-width="6.000000"
	d="
M771.000000,448.500000 
	C772.244751,452.069061 770.991089,454.912170 769.083496,458.050751 
	C758.410095,475.612030 748.442200,493.615723 737.386475,510.927521 
	C723.996704,531.894226 709.433777,552.087097 694.526001,572.019470 
	C686.380432,582.910522 678.557556,594.042725 670.444397,604.958618 
	C669.067627,606.811096 667.796631,609.556152 664.500000,608.500000 
"/>
<path fill="none" opacity="1.000000" stroke="#000000" stroke-linecap="round" stroke-linejoin="round" stroke-width="7.000000"
	d="
M447.000000,110.500000 
	C451.281982,114.823021 454.099396,119.484474 452.124817,126.037613 
	C451.494141,128.130692 452.069611,130.722656 452.550781,132.989212 
	C453.847076,139.095444 451.013397,144.644272 450.447113,150.494873 
	C448.838379,167.115616 443.734558,183.103622 441.236115,199.535904 
	C440.189514,206.419083 439.566467,213.503189 438.796082,220.477478 
	C437.746704,229.977127 437.298615,239.496964 436.501373,249.000122 
	C435.467712,261.321350 436.114441,273.666962 436.057953,286.000275 
	C436.036987,290.576172 435.330048,293.848175 431.152161,297.190216 
	C413.548157,311.272461 397.480042,327.127747 380.978271,342.476624 
	C378.268372,344.997192 375.885376,348.059204 372.000000,349.000000 
"/>
<path fill="none" opacity="1.000000" stroke="#000000" stroke-linecap="round" stroke-linejoin="round" stroke-width="6.000000"
	d="
M790.500000,256.500000 
	C793.040466,253.440140 792.839478,249.503128 793.372070,245.980652 
	C795.128235,234.365311 796.370178,222.670929 797.720398,210.996582 
	C798.006836,208.520065 797.683228,205.965775 798.043823,203.506424 
	C799.124939,196.131500 801.601990,189.030319 802.085510,181.505493 
	C802.377502,176.961456 802.876587,172.353699 804.510193,167.972641 
	C805.992310,166.894745 807.404968,167.428986 808.474670,168.524704 
	C812.579956,172.729797 816.631470,176.399628 816.849670,183.489243 
	C817.056335,190.205948 820.013184,196.880051 822.025513,203.492233 
	C833.138916,240.008453 844.360962,276.491577 855.472961,313.008240 
	C857.331726,319.116455 858.780273,325.348389 860.526245,331.492554 
	C861.222961,333.944183 861.316406,336.248779 860.000000,338.500000 
"/>
<path fill="none" opacity="1.000000" stroke="#000000" stroke-linecap="round" stroke-linejoin="round" stroke-width="6.000000"
	d="
M531.000000,449.500000 
	C529.133179,451.099945 528.906921,453.215088 528.985168,455.500519 
	C529.331909,465.635437 531.056641,475.572021 532.953430,485.508881 
	C534.783447,495.095642 535.839600,504.806488 537.102478,514.486633 
	C538.675354,526.542358 541.250916,538.465637 542.901917,550.513428 
	C543.829285,557.280701 544.658325,564.095459 544.582947,571.000916 
	C544.517578,576.996582 545.257751,582.996948 545.460693,589.001343 
	C545.558411,591.892090 545.553101,594.674866 544.148254,597.571899 
	C542.455627,601.062195 545.732239,604.736450 544.911987,608.500000 
	C545.166687,608.500000 545.337036,608.476990 545.499451,608.503357 
	C552.549805,609.648804 558.410950,607.584351 563.542847,602.543579 
	C570.678955,595.534241 579.319397,590.325073 587.224609,584.294434 
	C596.887024,576.923218 607.274719,570.400818 617.043823,563.058289 
	C620.710571,560.302307 623.680115,556.891174 626.389404,553.413818 
	C632.824707,545.154297 640.150146,537.847168 648.000000,531.000000 
"/>
<path fill="none" opacity="1.000000" stroke="#000000" stroke-linecap="round" stroke-linejoin="round" stroke-width="6.000000"
	d="
M663.500000,259.500000 
	C670.136414,264.787842 673.363953,272.469208 677.486572,279.507874 
	C685.843567,293.775879 690.653442,309.518921 695.905212,325.032074 
	C699.648560,336.089203 705.146729,345.768372 713.451172,354.048950 
	C726.866333,367.425568 738.768555,382.181213 750.293884,397.158600 
	C754.002258,401.977600 755.355835,408.483734 759.351929,413.615295 
	C764.677246,420.453827 769.609009,427.568420 776.000000,433.500000 
"/>
<path fill="none" opacity="1.000000" stroke="#000000" stroke-linecap="round" stroke-linejoin="round" stroke-width="7.000000"
	d="
M365.500000,608.500000 
	C362.745758,608.945923 361.861267,607.892517 360.850128,605.053345 
	C350.209717,575.176697 339.397217,545.369568 325.079102,516.960144 
	C318.447815,503.802551 310.012482,491.906372 301.582611,479.941772 
	C300.561188,478.492096 299.013153,478.179077 298.000000,477.000000 
"/>
<path fill="none" opacity="1.000000" stroke="#000000" stroke-linecap="round" stroke-linejoin="round" stroke-width="7.000000"
	d="
M675.500000,56.500000 
	C672.002747,57.801643 671.684509,61.382256 671.155884,64.031105 
	C668.431030,77.684929 663.722351,90.941620 662.862061,104.991554 
	C662.772827,106.448967 662.566589,108.007111 662.533142,109.500740 
	C662.305664,119.665985 663.217651,129.803879 662.630981,140.007538 
	C661.914124,152.475891 662.740112,165.045761 661.747803,177.479874 
	C661.281250,183.325912 662.301208,188.841217 662.392029,194.501740 
	C662.581909,206.329330 662.051819,218.166550 662.038940,230.000046 
	C662.029846,238.332626 662.163940,246.671051 662.317566,255.003357 
	C662.464539,262.972595 661.010010,270.980530 661.526367,278.998291 
	C663.038513,302.479980 663.025391,325.987579 663.069275,349.499878 
	C663.075806,352.984680 664.687012,356.435547 663.500000,360.000000 
"/>
<path fill="none" opacity="1.000000" stroke="#000000" stroke-linecap="round" stroke-linejoin="round" stroke-width="7.000000"
	d="
M678.000000,40.500000 
	C684.886780,46.602386 689.203796,54.682560 694.478271,62.015636 
	C710.870911,84.806297 727.145081,107.682167 743.509766,130.492981 
	C750.952515,140.867432 759.138611,150.779526 765.735291,161.660507 
	C769.121216,167.245499 774.519165,170.713074 777.666992,176.407700 
	C781.148804,182.706573 786.052185,188.181320 790.970703,193.526978 
	C792.979797,195.710556 794.328003,198.605057 797.750000,199.000000 
"/>
<path fill="none" opacity="1.000000" stroke="#000000" stroke-linecap="round" stroke-linejoin="round" stroke-width="6.000000"
	d="
M285.000000,329.500000 
	C288.720673,331.926147 289.093018,337.201111 293.672028,339.180359 
	C295.677765,340.047333 294.348358,343.108337 293.928925,344.984100 
	C287.138092,375.353729 277.390930,404.924377 269.464508,434.990631 
	C266.856476,444.883362 263.831970,454.666260 261.002991,464.500885 
	C260.813141,465.160858 260.304962,466.046051 260.553436,466.468567 
	C265.411987,474.730194 260.743896,482.686981 259.274841,490.457428 
	C256.756500,503.778168 252.322739,516.730347 249.641129,530.028442 
	C246.864365,543.798523 243.280594,557.444763 241.972275,571.497437 
	C241.846344,572.850037 241.333328,574.166687 241.000000,575.500000 
"/>
<path fill="none" opacity="1.000000" stroke="#000000" stroke-linecap="round" stroke-linejoin="round" stroke-width="6.000000"
	d="
M677.500000,34.500000 
	C678.652283,39.659462 675.145325,42.234871 672.143677,45.627136 
	C666.639465,51.847649 661.689270,58.625122 657.056702,65.538010 
	C641.462769,88.808052 625.296692,111.696068 610.453857,135.471191 
	C605.242737,143.818222 599.313354,151.716568 594.093872,160.058746 
	C592.066772,163.298553 588.362427,163.178528 585.982910,165.482346 
	C566.529175,184.317047 546.491882,202.611526 531.458435,225.472656 
	C530.443787,227.015579 528.833313,228.166641 527.500000,229.499969 
"/>
<path fill="none" opacity="1.000000" stroke="#000000" stroke-linecap="round" stroke-linejoin="round" stroke-width="7.000000"
	d="
M913.000000,450.000000 
	C910.902893,456.993958 915.406006,462.693054 916.824097,468.983307 
	C918.418518,476.055939 920.578430,483.001343 922.503967,489.998901 
	C922.906372,491.461456 923.505310,492.599945 924.946899,493.578278 
	C928.608887,496.063568 929.887939,500.381287 931.954285,504.025940 
	C948.369690,532.979370 964.662720,562.002197 981.003906,590.997803 
	C983.642761,595.680176 986.854736,600.126831 988.813782,605.073730 
	C990.085693,608.285339 991.786133,608.716980 994.500000,608.500000 
"/>
<path fill="none" opacity="1.000000" stroke="#000000" stroke-linecap="round" stroke-linejoin="round" stroke-width="6.000000"
	d="
M824.000000,463.500000 
	C825.691284,465.086426 825.294067,467.059937 824.996643,468.999481 
	C822.205627,487.200043 818.425720,505.064575 809.553772,521.528992 
	C801.194397,537.042297 791.314392,551.288147 778.045898,563.051758 
	C776.203125,564.685486 773.467896,565.209412 772.008057,565.173523 
	C767.853088,565.071167 763.545044,568.206848 759.500000,565.000000 
"/>
<path fill="none" opacity="1.000000" stroke="#000000" stroke-linecap="round" stroke-linejoin="round" stroke-width="8.000000"
	d="
M923.000000,493.500000 
	C920.590271,496.546875 920.593750,499.930420 921.468811,503.507629 
	C921.824402,504.961426 921.893860,506.496094 921.990784,508.000580 
	C923.171631,526.333008 924.365723,544.664734 925.482178,563.001099 
	C925.867554,569.330750 925.884399,575.681274 926.219238,582.014832 
	C926.676331,590.660583 927.712402,599.312317 927.523865,608.038452 
	C928.775452,609.009766 930.153259,608.381042 931.500000,608.250000 
"/>
<path fill="none" opacity="1.000000" stroke="#000000" stroke-linecap="round" stroke-linejoin="round" stroke-width="8.000000"
	d="
M817.500000,179.000000 
	C820.540161,178.107407 822.234009,180.169922 823.995117,182.004684 
	C842.139648,200.908447 862.387939,217.592560 880.968994,236.031235 
	C885.612976,240.639648 890.979980,244.069504 896.330383,247.746780 
	C903.354797,252.574600 909.150024,259.184845 915.503052,264.996674 
	C936.828369,284.505432 958.048401,304.131897 979.566284,323.426056 
	C986.780762,329.894928 994.277893,336.414276 1000.038391,343.857269 
	C1004.544983,349.680359 1008.202820,356.766510 1012.639160,362.899323 
	C1028.618408,384.988892 1045.014893,406.782715 1061.579712,428.438995 
	C1067.631958,436.351410 1072.870728,444.911926 1079.947144,452.052399 
	C1081.327148,453.444885 1080.276245,455.671844 1080.500000,457.500000 
"/>
<path fill="none" opacity="1.000000" stroke="#000000" stroke-linecap="round" stroke-linejoin="round" stroke-width="7.000000"
	d="
M62.500000,372.000000 
	C65.442726,373.390594 67.405540,375.431976 69.117561,378.432922 
	C87.986282,411.507538 105.421753,445.407715 125.959122,477.526154 
	C127.108665,479.323944 127.666664,481.500000 128.500000,483.500000 
"/>
<path fill="none" opacity="1.000000" stroke="#000000" stroke-linecap="round" stroke-linejoin="round" stroke-width="7.000000"
	d="
M640.000000,208.500000 
	C640.354187,215.140167 635.650574,219.724304 632.864990,224.927719 
	C618.118530,252.473419 602.879700,279.754822 588.463745,307.481171 
	C586.957764,310.377747 585.724243,313.659088 582.250000,315.000000 
"/>
<path fill="none" opacity="1.000000" stroke="#000000" stroke-linecap="round" stroke-linejoin="round" stroke-width="6.000000"
	d="
M223.000000,407.000000 
	C221.048508,404.461212 219.097000,401.922424 217.206238,399.462677 
	C214.834946,399.891846 213.056122,400.809296 211.467987,402.469360 
	C194.519516,420.185333 177.417755,437.755219 160.536316,455.534485 
	C152.657150,463.832703 145.046570,472.396362 137.569733,481.060150 
	C135.181854,483.827118 132.823929,484.769928 129.467804,483.390472 
	C124.427025,486.548615 126.685150,490.831604 128.634018,493.915314 
	C135.303787,504.469208 138.952393,516.117920 141.956497,528.010986 
	C146.977600,547.889343 152.856247,567.583374 155.484177,588.002014 
	C155.775009,590.261780 156.825089,592.142334 158.000000,594.000000 
"/>
<path fill="none" opacity="1.000000" stroke="#000000" stroke-linecap="round" stroke-linejoin="round" stroke-width="6.000000"
	d="
M431.000000,132.500000 
	C428.316162,132.960480 426.848572,135.047089 425.538239,137.025330 
	C411.089081,158.840103 394.816406,179.417191 381.487000,201.992325 
	C376.735046,210.040375 372.091644,218.172714 366.902374,225.934723 
	C363.827789,230.533615 360.956512,235.495346 355.045013,237.624924 
	C351.358459,238.952957 349.890961,243.136871 347.601135,246.078705 
	C329.419525,269.437347 311.369690,292.902405 293.626984,316.595093 
	C290.634247,320.591431 285.469971,323.226227 285.000000,329.000000 
	C277.406555,331.268341 275.218597,338.742462 271.162262,344.122345 
	C257.075348,362.805511 244.401077,382.590363 229.758621,400.805969 
	C218.807007,414.430054 209.749344,429.305359 199.036682,443.028625 
	C197.112152,445.494019 195.660187,448.329315 194.002106,451.001312 
	C192.748505,453.021423 191.771713,455.098907 193.002365,457.498779 
	C194.323593,460.075348 192.586060,462.423218 191.841141,464.441376 
	C187.164139,477.112885 185.486404,490.458405 182.550201,503.511292 
	C180.998550,510.409210 179.938675,517.419800 179.500000,524.500000 
"/>
<path fill="none" opacity="1.000000" stroke="#000000" stroke-linecap="round" stroke-linejoin="round" stroke-width="6.000000"
	d="
M708.500000,421.500000 
	C704.450684,438.887421 699.170654,455.926208 694.032715,473.009857 
	C689.514221,488.033997 685.036194,503.072235 681.901550,518.479980 
	C681.291565,521.478149 682.700256,523.559937 683.500000,526.000000 
"/>
<path fill="none" opacity="1.000000" stroke="#000000" stroke-linecap="round" stroke-linejoin="round" stroke-width="8.000000"
	d="
M846.500000,423.500000 
	C846.868164,433.342407 844.643799,443.119995 845.959045,453.005463 
	C847.153015,461.979645 847.992981,471.000793 849.002197,479.999756 
	C849.824768,487.334320 850.790466,494.655243 851.467957,502.002960 
	C852.272095,510.724213 853.433350,519.387207 855.000000,528.000000 
"/>
<path fill="none" opacity="1.000000" stroke="#000000" stroke-linecap="round" stroke-linejoin="round" stroke-width="7.000000"
	d="
M384.000000,450.500000 
	C387.902466,456.960632 393.297699,462.214355 398.580200,467.418579 
	C411.993256,480.632843 424.960114,494.167694 436.052063,509.462219 
	C445.555847,522.566833 450.599335,537.319885 453.505310,552.999023 
	C453.630280,553.673462 453.648865,554.469971 454.026794,554.980164 
	C465.586884,570.584961 472.247162,588.898193 481.949310,605.529541 
	C483.072937,607.455688 483.839874,609.231689 486.500000,608.250000 
"/>
<path fill="none" opacity="1.000000" stroke="#000000" stroke-linecap="round" stroke-linejoin="round" stroke-width="6.000000"
	d="
M853.500000,383.000000 
	C849.966736,386.615417 849.617249,391.547150 848.604736,396.023682 
	C845.070190,411.651093 836.919983,425.367645 831.069824,440.027863 
	C829.595215,443.723328 828.068481,447.430542 827.426819,451.488434 
	C825.850525,461.457153 818.617432,468.734711 814.237427,477.366791 
	C805.089905,495.395050 795.221252,513.106812 784.026855,530.017761 
	C777.239807,540.270691 769.740601,549.964966 762.020081,559.516235 
	C749.959290,574.437073 735.540466,587.035767 721.987488,600.487427 
	C719.855347,602.603638 717.740967,604.650757 718.000000,608.000000 
"/>
<path fill="none" opacity="1.000000" stroke="#000000" stroke-linecap="round" stroke-linejoin="round" stroke-width="7.000000"
	d="
M111.000000,513.500000 
	C107.629570,515.412781 106.313065,518.879272 104.485001,521.991211 
	C88.616478,549.003784 74.842072,577.285095 55.937656,602.453186 
	C53.861004,605.217896 52.521469,609.599854 47.500000,608.500000 
"/>
<path fill="none" opacity="1.000000" stroke="#000000" stroke-linecap="round" stroke-linejoin="round" stroke-width="8.000000"
	d="
M846.000000,373.500000 
	C847.000000,374.166656 848.289673,374.621704 848.955200,375.532745 
	C855.610840,384.643494 864.393066,392.012115 870.134949,401.921783 
	C872.022400,405.179352 873.963257,408.699677 878.410278,410.256348 
	C881.222107,411.240631 882.968018,414.867767 885.078613,417.435364 
	C888.524841,421.627960 891.476440,426.164246 896.863403,428.781158 
	C899.795532,430.205505 901.250854,434.564026 903.517944,437.486084 
	C907.671875,442.840057 911.864990,447.937958 917.893066,451.672607 
	C925.372742,456.306580 930.121277,464.082428 935.897400,470.591064 
	C949.465881,485.880066 963.615601,500.714081 975.883118,517.087585 
	C981.898010,525.115662 990.826050,529.797058 997.029724,537.476013 
	C1003.572327,545.574463 1011.579285,552.273804 1019.079712,559.416321 
	C1036.160278,575.681763 1053.693115,591.471558 1070.966187,607.536377 
	C1073.088013,609.509888 1075.378418,607.873779 1077.500000,608.500000 
"/>
<path fill="none" opacity="1.000000" stroke="#000000" stroke-linecap="round" stroke-linejoin="round" stroke-width="7.000000"
	d="
M500.500000,192.000000 
	C502.773895,192.961548 504.771484,194.491730 505.941132,196.533707 
	C512.548096,208.068008 519.469849,219.319412 527.071472,230.296722 
	C533.067505,238.955399 538.236023,248.409012 544.601746,256.923920 
	C548.607422,262.282074 550.786621,268.530731 554.424255,274.049927 
	C562.336426,286.054779 569.492676,298.566193 577.602173,310.430176 
	C584.763794,320.907471 590.165710,332.460052 597.937073,342.548492 
	C600.522461,345.904755 603.317810,348.499634 607.497070,349.512146 
	C622.504517,353.147949 637.511047,356.788971 652.493713,360.525146 
	C657.444092,361.759613 662.510010,360.787140 667.558228,361.665375 
	C670.256165,362.134705 673.115051,362.528442 675.448059,363.611908 
	C692.169739,371.377197 707.504883,381.164825 719.492432,395.506317 
	C721.952332,398.449249 725.944214,398.980438 728.601074,401.908264 
	C734.613037,408.533264 741.342102,414.502563 747.456787,421.040466 
	C755.584351,429.730560 764.760010,436.583435 776.500000,439.500000 
"/>
<path fill="none" opacity="1.000000" stroke="#000000" stroke-linecap="round" stroke-linejoin="round" stroke-width="5.000000"
	d="
M548.500000,426.500000 
	C565.548828,444.181213 578.578003,464.707245 590.476013,486.013397 
	C595.430237,494.885010 598.309814,504.525635 599.906433,514.514954 
	C600.197571,516.336243 600.661621,518.258606 601.600159,519.418945 
	C609.430298,529.099670 613.238647,540.980347 619.500000,551.500000 
"/>
<path fill="none" opacity="1.000000" stroke="#000000" stroke-linecap="round" stroke-linejoin="round" stroke-width="6.000000"
	d="
M351.500000,608.500000 
	C346.125824,609.622559 342.283203,606.508667 337.948151,604.093018 
	C319.904724,594.038574 301.611328,584.433533 283.526611,574.451782 
	C276.056702,570.328918 268.826874,565.786194 260.500000,563.500000 
"/>
<path fill="none" opacity="1.000000" stroke="#000000" stroke-linecap="round" stroke-linejoin="round" stroke-width="6.000000"
	d="
M260.000000,467.000000 
	C256.983978,467.915894 255.820908,470.502350 254.486481,472.992767 
	C250.189438,481.012207 246.995895,489.986145 241.236221,496.776245 
	C231.850494,507.841034 225.438980,520.628967 217.578476,532.551758 
	C212.819031,539.770813 208.833328,547.500000 204.499985,555.000000 
"/>
<path fill="none" opacity="1.000000" stroke="#000000" stroke-linecap="round" stroke-linejoin="round" stroke-width="7.000000"
	d="
M772.500000,240.500000 
	C771.233032,242.926651 771.364685,245.167770 771.783936,248.031631 
	C774.190002,264.466248 779.957336,280.120117 782.582581,296.486755 
	C783.157776,300.072754 785.550232,303.183594 787.147278,306.427490 
	C800.316711,333.177826 813.628357,359.863617 828.005554,385.996918 
	C828.294189,386.521515 828.666687,386.999969 829.000000,387.499969 
"/>
<path fill="none" opacity="1.000000" stroke="#000000" stroke-linecap="round" stroke-linejoin="round" stroke-width="6.000000"
	d="
M62.000000,364.500000 
	C62.000000,366.333344 61.857754,368.180817 62.038387,369.996185 
	C62.234970,371.971832 61.373428,374.018402 59.965965,374.359619 
	C54.655403,375.647217 53.263676,380.401489 50.478653,383.983398 
	C34.135418,405.003052 20.711721,428.044128 5.039324,449.528687 
	C2.928081,452.422882 2.544776,456.123993 1.500000,459.500000 
"/>
<path fill="none" opacity="1.000000" stroke="#000000" stroke-linecap="round" stroke-linejoin="round" stroke-width="7.000000"
	d="
M982.000000,525.500000 
	C980.465332,529.138550 981.809875,532.243347 983.448547,535.525696 
	C989.907288,548.463074 996.150818,561.507751 1002.504944,574.497559 
	C1007.647156,585.009583 1012.973694,595.434875 1017.896606,606.047974 
	C1019.057190,608.550232 1020.294495,608.911072 1022.500000,608.250000 
"/>
<path fill="none" opacity="1.000000" stroke="#000000" stroke-linecap="round" stroke-linejoin="round" stroke-width="5.000000"
	d="
M358.000000,237.500000 
	C358.864075,240.272812 357.937378,242.799759 356.453796,244.968384 
	C352.896454,250.168182 349.565186,255.441742 345.193054,260.178223 
	C339.723419,266.103668 335.665466,273.332520 331.000244,280.000153 
	C318.476593,297.899170 306.247131,315.971466 297.189850,335.972748 
	C296.567108,337.347992 295.083344,338.333344 294.000000,339.500000 
"/>
<path fill="none" opacity="1.000000" stroke="#000000" stroke-linecap="round" stroke-linejoin="round" stroke-width="6.000000"
	d="
M871.500000,351.000000 
	C870.846985,353.391876 870.922852,355.632080 871.956665,358.018768 
	C880.533264,377.818939 888.930969,397.696777 897.559570,417.473999 
	C899.238159,421.321442 898.566895,424.833344 897.500000,428.500000 
"/>
<path fill="none" opacity="1.000000" stroke="#000000" stroke-linecap="round" stroke-linejoin="round" stroke-width="8.000000"
	d="
M1042.000000,304.000000 
	C1046.546997,307.928986 1048.715454,313.432220 1051.473633,318.514282 
	C1060.045532,334.308624 1068.068970,350.424133 1077.275757,365.835297 
	C1079.868652,370.175781 1080.433716,374.025238 1080.500000,378.500000 
"/>
<path fill="none" opacity="1.000000" stroke="#000000" stroke-linecap="round" stroke-linejoin="round" stroke-width="6.000000"
	d="
M60.000000,375.000000 
	C62.087448,381.425598 59.781338,387.718567 59.090855,393.982452 
	C58.374329,400.482635 56.832203,406.904388 57.097427,413.496094 
	C57.125427,414.191864 57.644962,414.745636 57.016533,415.513519 
	C50.513378,423.459747 48.436268,433.548431 44.075409,442.536591 
	C38.217468,454.610443 32.882607,467.200745 30.003300,480.112244 
	C27.677984,490.539490 19.675850,497.537354 17.500000,507.500000 
"/>
<path fill="none" opacity="1.000000" stroke="#000000" stroke-linecap="round" stroke-linejoin="round" stroke-width="5.000000"
	d="
M126.500000,486.500000 
	C122.896820,487.039703 120.382919,485.687256 118.466850,482.520050 
	C105.589355,461.234192 88.981972,443.011993 71.589455,425.411591 
	C69.980392,423.783356 68.493340,423.179993 66.500000,423.000000 
"/>
<path fill="none" opacity="1.000000" stroke="#000000" stroke-linecap="round" stroke-linejoin="round" stroke-width="7.000000"
	d="
M721.000000,398.000000 
	C719.006958,403.833435 722.443115,408.840637 723.918335,413.951416 
	C728.718567,430.581238 734.212402,447.012207 739.549927,463.483826 
	C740.182617,465.436188 741.500000,467.166656 742.500000,469.000000 
"/>
<path fill="none" opacity="1.000000" stroke="#000000" stroke-linecap="round" stroke-linejoin="round" stroke-width="6.000000"
	d="
M58.000000,415.000000 
	C62.426762,417.576752 65.810303,420.054260 65.858742,426.497314 
	C65.902397,432.304718 70.666985,437.259735 73.536049,442.480194 
	C83.660362,460.902069 96.418953,477.770874 105.810539,496.594513 
	C107.830681,500.643494 108.479660,505.388702 110.881195,509.568268 
	C115.589012,517.761719 118.183235,526.897156 120.409241,536.022156 
	C122.429588,544.304077 125.263344,552.374573 126.240143,560.972717 
	C126.619919,564.315735 129.507950,567.331177 130.650406,570.952576 
	C133.954956,581.427368 135.379654,592.133118 135.936493,603.003235 
	C136.035568,604.937561 136.435837,606.708618 137.056580,608.231934 
	C142.376846,610.774719 144.681961,605.725891 147.330261,603.313660 
	C154.197662,597.058350 162.210419,593.316711 170.370590,589.240906 
	C179.371979,584.744873 188.638885,580.741821 197.422318,575.860229 
	C201.635056,573.518860 206.400146,573.491699 210.604065,571.190063 
	C213.190933,569.773804 215.676743,568.763123 217.000000,566.000000 
"/>
<path fill="none" opacity="1.000000" stroke="#000000" stroke-linecap="round" stroke-linejoin="round" stroke-width="5.000000"
	d="
M704.000000,510.000000 
	C704.877747,512.924988 704.338562,515.351074 702.582153,518.053406 
	C691.505005,535.096741 681.161682,552.571289 672.443726,570.973328 
	C671.226807,573.542114 669.868103,576.368103 666.500000,577.000000 
"/>
<path fill="none" opacity="1.000000" stroke="#000000" stroke-linecap="round" stroke-linejoin="round" stroke-width="5.000000"
	d="
M241.000000,499.000000 
	C242.408066,501.166656 242.024490,503.176636 241.064575,505.526398 
	C236.196167,517.443481 232.656937,529.831787 228.412781,541.969482 
	C225.634155,549.916077 222.609161,557.839661 218.000000,565.000000 
"/>
<path fill="none" opacity="1.000000" stroke="#000000" stroke-linecap="round" stroke-linejoin="round" stroke-width="3.000000"
	d="
M651.500000,531.500000 
	C650.846008,541.961304 646.971008,551.550476 642.868408,560.942505 
	C640.106934,567.264282 638.782288,574.412109 633.513672,579.514160 
	C632.583923,580.414551 631.939026,581.617371 630.981689,582.479614 
	C626.857849,586.193909 622.070496,589.361267 618.680054,593.642578 
	C615.727112,597.371582 614.018616,602.108398 611.123657,606.089905 
	C609.741577,607.990662 608.747253,608.994507 606.500000,608.250000 
"/>
<path fill="none" opacity="1.000000" stroke="#000000" stroke-linecap="round" stroke-linejoin="round" stroke-width="7.000000"
	d="
M179.000000,538.000000 
	C183.195663,538.206482 185.172363,541.825684 187.945709,544.067200 
	C201.570114,555.078674 215.724655,565.457031 231.637375,572.698120 
	C238.756119,575.937500 246.541214,578.458252 253.826584,581.425781 
	C262.597839,584.998413 270.932068,590.135010 279.521820,594.456665 
	C286.246185,597.839844 293.999664,599.780029 299.744385,604.323242 
	C304.604065,608.166443 309.174713,608.585144 314.500000,608.500000 
"/>
<path fill="none" opacity="1.000000" stroke="#000000" stroke-linecap="round" stroke-linejoin="round" stroke-width="5.000000"
	d="
M591.500000,163.500000 
	C592.478455,166.594238 591.904236,169.290878 590.041504,172.028229 
	C580.878906,185.493210 574.516785,200.238663 570.528931,216.007324 
	C569.825439,218.789185 569.500000,221.666672 569.000000,224.500000 
"/>
<path fill="none" opacity="1.000000" stroke="#000000" stroke-linecap="round" stroke-linejoin="round" stroke-width="6.000000"
	d="
M453.000000,554.000000 
	C444.844696,557.424561 435.998657,557.342407 427.485229,558.920349 
	C418.384094,560.607178 409.185120,561.824463 399.988098,562.897949 
	C397.436005,563.195801 395.283722,564.159729 393.000000,565.000000 
"/>
<path fill="none" opacity="1.000000" stroke="#000000" stroke-linecap="round" stroke-linejoin="round" stroke-width="5.000000"
	d="
M592.000000,224.500000 
	C593.092224,226.972931 591.366028,228.378159 590.014526,230.012009 
	C578.610168,243.798462 571.189697,259.701355 565.536621,276.512329 
	C564.695984,279.012207 563.310303,280.829651 561.000000,282.000000 
"/>
<path fill="none" opacity="1.000000" stroke="#000000" stroke-linecap="round" stroke-linejoin="round" stroke-width="6.000000"
	d="
M53.000000,551.500000 
	C53.108849,554.353455 51.404362,556.223328 49.502167,558.002319 
	C36.497990,570.164551 23.470715,582.302307 10.518837,594.519958 
	C6.908275,597.925903 2.920227,601.144897 2.000000,606.500000 
"/>
<path fill="none" opacity="1.000000" stroke="#000000" stroke-linecap="round" stroke-linejoin="round" stroke-width="5.000000"
	d="
M601.500000,520.000000 
	C600.018311,521.565613 599.701904,523.518311 600.025452,525.495850 
	C602.336853,539.622681 602.743713,553.784973 600.995361,567.999451 
	C600.775452,569.787537 601.479675,571.370728 602.000000,573.000000 
"/>
<path fill="none" opacity="1.000000" stroke="#000000" stroke-linecap="round" stroke-linejoin="round" stroke-width="6.000000"
	d="
M106.500000,504.500000 
	C97.728134,509.495453 91.088966,517.085632 83.569679,523.580688 
	C76.084969,530.045776 69.220749,537.224792 61.970387,543.968201 
	C59.462181,546.300964 55.216545,546.535889 53.966812,550.489502 
	C53.888649,550.736816 53.343651,550.953003 52.998508,550.982788 
	C39.022942,552.188843 29.328245,562.706482 17.019487,567.549500 
	C14.054913,568.715942 11.401563,570.652649 8.481275,571.958069 
	C5.415031,573.328735 2.833047,574.999695 2.000000,578.500000 
"/>
<path fill="none" opacity="1.000000" stroke="#000000" stroke-linecap="round" stroke-linejoin="round" stroke-width="6.000000"
	d="
M856.500000,527.750000 
	C855.080200,527.848389 854.466187,528.974365 854.028625,530.012085 
	C847.109436,546.420532 836.537048,560.654480 826.935913,575.458435 
	C825.881104,577.084839 825.144531,578.738953 824.500000,580.500000 
"/>
<path fill="none" opacity="1.000000" stroke="#000000" stroke-linecap="round" stroke-linejoin="round" stroke-width="6.000000"
	d="
M192.000000,454.500000 
	C188.259644,455.504364 186.722748,458.858063 184.491150,461.492493 
	C174.053452,473.814728 165.387543,487.534180 154.497849,499.498047 
	C153.346985,500.762421 152.166641,501.999969 150.999969,503.249969 
"/>
<path fill="none" opacity="1.000000" stroke="#000000" stroke-linecap="round" stroke-linejoin="round" stroke-width="7.000000"
	d="
M125.500000,561.500000 
	C118.788376,567.343140 113.509560,574.509033 107.519112,581.017578 
	C99.608116,589.612793 91.724808,598.239563 84.089218,607.077087 
	C82.512901,608.901550 81.160500,608.411133 79.500000,608.250000 
"/>
<path fill="none" opacity="1.000000" stroke="#000000" stroke-linecap="round" stroke-linejoin="round" stroke-width="7.000000"
	d="
M77.500000,453.000000 
	C58.584034,455.969025 46.635616,468.555542 35.963917,482.973297 
	C34.410118,485.072571 33.343147,488.390961 29.500000,487.000000 
"/>
<path fill="none" opacity="1.000000" stroke="#000000" stroke-linecap="round" stroke-linejoin="round" stroke-width="8.000000"
	d="
M778.500000,564.000000 
	C785.670471,568.367920 793.660339,571.181641 801.562378,573.263245 
	C820.383484,578.221252 836.637451,587.897522 852.440247,598.588379 
	C856.749390,601.503540 861.387146,603.979614 865.152283,607.851929 
	C867.058289,609.812195 870.673584,608.216064 873.500000,608.500000 
"/>
<path fill="none" opacity="1.000000" stroke="#000000" stroke-linecap="round" stroke-linejoin="round" stroke-width="6.000000"
	d="
M2.500000,530.500000 
	C11.029811,530.908447 19.175585,533.501953 27.470297,535.149536 
	C34.778973,536.601257 41.837677,539.319153 48.997944,541.506714 
	C52.025612,542.431702 54.425358,544.201050 56.000000,547.000000 
"/>
<path fill="none" opacity="1.000000" stroke="#000000" stroke-linecap="round" stroke-linejoin="round" stroke-width="6.000000"
	d="
M781.500000,296.999969 
	C765.500000,300.166656 749.500000,303.333313 733.500000,306.499969 
"/>
<path fill="none" opacity="1.000000" stroke="#000000" stroke-linecap="round" stroke-linejoin="round" stroke-width="7.000000"
	d="
M660.000000,186.500000 
	C653.724609,189.680374 650.863159,196.039551 646.505127,201.004486 
	C645.801880,201.805679 645.248474,202.752045 644.484558,203.483902 
	C642.244812,205.629623 640.954407,208.309448 636.463684,207.876495 
	C632.808960,207.524124 628.896179,210.694016 624.987183,211.960358 
	C616.361816,214.754562 607.437134,216.770554 599.074280,220.182022 
	C592.644714,222.804825 585.805115,224.620499 580.373108,229.868668 
	C571.702515,238.245865 563.191040,246.729507 555.565125,256.053253 
	C553.561707,258.502655 551.487122,260.498779 548.500000,261.500000 
"/>
<path fill="none" opacity="1.000000" stroke="#000000" stroke-linecap="round" stroke-linejoin="round" stroke-width="7.000000"
	d="
M377.500000,543.000000 
	C382.840088,546.191833 384.231750,552.120422 386.920746,557.043274 
	C395.962494,573.596130 404.770996,590.279724 413.389709,607.056641 
	C414.712158,609.630920 416.102325,608.039246 417.500000,608.250000 
"/>
<path fill="none" opacity="1.000000" stroke="#000000" stroke-linecap="round" stroke-linejoin="round" stroke-width="6.000000"
	d="
M616.500000,594.500000 
	C613.782532,593.202515 611.312134,594.157593 609.013245,595.522339 
	C602.817627,599.200500 595.797363,601.396790 589.721252,604.885376 
	C583.591309,608.404968 577.773254,608.396240 571.500000,608.500000 
"/>
<path fill="none" opacity="1.000000" stroke="#000000" stroke-linecap="round" stroke-linejoin="round" stroke-width="6.000000"
	d="
M768.500000,168.000000 
	C764.424927,171.943268 758.900635,171.251465 753.991089,172.463852 
	C744.531982,174.799728 734.549622,174.858643 725.500000,179.000000 
"/>
<path fill="none" opacity="1.000000" stroke="#000000" stroke-linecap="round" stroke-linejoin="round" stroke-width="8.000000"
	d="
M845.500000,370.500000 
	C845.254944,371.486938 846.105286,372.738037 844.989685,373.484589 
	C839.137390,377.400696 836.225464,384.254669 829.694519,387.853088 
	C826.747314,389.476929 825.482666,394.546509 822.579041,397.575745 
	C819.501404,400.786591 817.264893,404.406647 812.590515,406.231812 
	C807.943542,408.046295 805.178894,412.996002 801.090576,416.118591 
	C793.029358,422.275635 785.276611,428.842133 778.890686,436.913513 
	C776.705811,439.675049 775.771973,443.206879 773.002075,445.502533 
	C768.269287,449.425079 763.434143,453.195496 758.855347,457.340179 
	C753.859924,461.861969 749.489014,467.547394 742.500000,469.500000 
	C736.817993,478.151306 728.224426,483.898163 720.936462,490.934174 
	C715.315796,496.360535 709.356995,501.485413 705.119629,508.076904 
	C703.474243,510.636444 700.543640,509.414185 698.974365,511.480499 
	C693.173279,519.118652 684.575684,524.176086 679.494385,532.496582 
	C678.868530,533.521484 677.682678,534.450134 677.573730,535.507568 
	C676.283813,548.035828 668.050964,558.505432 666.364075,570.550964 
	C664.476990,584.026611 657.012756,594.630920 652.217712,606.587341 
	C651.048218,609.503540 649.883362,608.100037 648.500000,608.250000 
"/>
<path fill="none" opacity="1.000000" stroke="#000000" stroke-linecap="round" stroke-linejoin="round" stroke-width="6.000000"
	d="
M1022.500000,320.500000 
	C1020.128296,319.204254 1017.658752,319.094086 1014.994324,319.458435 
	C1006.843262,320.572876 998.651855,321.396637 990.509460,322.566071 
	C988.211548,322.896057 986.145508,324.225616 984.500000,326.000000 
"/>
<path fill="none" opacity="1.000000" stroke="#000000" stroke-linecap="round" stroke-linejoin="round" stroke-width="9.000000"
	d="
M135.000000,484.500000 
	C140.227249,490.922668 145.072586,497.608276 150.575119,503.873169 
	C156.933807,511.112854 163.622833,518.255127 169.568024,525.947449 
	C171.945953,529.024109 175.034409,531.564636 176.984009,535.009033 
	C177.937775,536.694092 178.930099,538.239319 178.101456,540.536621 
	C177.256393,542.879395 179.128952,544.667480 180.468582,546.522705 
	C186.991623,555.556152 194.489487,563.919373 199.500000,574.000000 
"/>
<path fill="none" opacity="1.000000" stroke="#000000" stroke-linecap="round" stroke-linejoin="round" stroke-width="5.000000"
	d="
M753.000000,399.500000 
	C755.974060,398.996857 757.406433,401.275299 758.971191,403.025757 
	C766.369080,411.301331 773.666687,419.666656 781.000000,428.000000 
"/>
<path fill="none" opacity="1.000000" stroke="#000000" stroke-linecap="round" stroke-linejoin="round" stroke-width="8.000000"
	d="
M161.500000,608.500000 
	C165.255463,608.394104 168.559494,608.381470 172.153015,605.705505 
	C181.082413,599.056030 190.010513,600.090149 198.973618,607.531738 
	C199.935776,608.330566 200.868347,608.515808 202.000061,608.508362 
	C205.499908,608.485413 209.000000,608.500000 212.500000,608.500000 
"/>
<path fill="none" opacity="1.000000" stroke="#000000" stroke-linecap="round" stroke-linejoin="round" stroke-width="6.000000"
	d="
M804.000000,168.000000 
	C793.989502,166.317871 784.330688,167.549286 775.000000,171.500000 
"/>
<path fill="none" opacity="1.000000" stroke="#000000" stroke-linecap="round" stroke-linejoin="round" stroke-width="3.000000"
	d="
M29.500000,509.500000 
	C26.101862,513.746155 23.702152,518.860352 18.522074,521.542603 
	C16.340696,522.672180 14.062270,523.590210 11.911242,524.848267 
	C9.486398,526.266418 8.775410,528.260925 8.000000,530.500000 
"/>
<path fill="none" opacity="1.000000" stroke="#000000" stroke-linecap="round" stroke-linejoin="round" stroke-width="8.000000"
	d="
M709.500000,608.500000 
	C720.500000,608.500000 731.500000,608.500000 742.500000,608.500000 
"/>
<path fill="none" opacity="1.000000" stroke="#000000" stroke-linecap="round" stroke-linejoin="round" stroke-width="8.000000"
	d="
M1042.500000,299.500000 
	C1042.386230,302.417175 1040.481201,304.058746 1038.616089,306.105804 
	C1034.061279,311.105255 1028.903442,315.510895 1024.347900,320.328949 
	C1020.298096,324.612183 1016.851013,329.786285 1012.462769,333.960815 
	C1008.787048,337.457550 1005.935791,341.934479 1001.000000,344.000000 
"/>
<path fill="none" opacity="1.000000" stroke="#000000" stroke-linecap="round" stroke-linejoin="round" stroke-width="6.000000"
	d="
M171.500000,590.000000 
	C173.344284,592.214355 175.408798,594.371094 178.041153,595.394104 
	C180.654373,596.409790 181.980881,598.185791 183.000000,600.500000 
"/>
<path fill="none" opacity="1.000000" stroke="#000000" stroke-linecap="round" stroke-linejoin="round" stroke-width="4.000000"
	d="
M13.500000,522.000000 
	C9.878304,520.843994 6.159726,521.819336 2.500000,521.500000 
"/>
</svg>